<svg width="1440" height="512" viewBox="0 0 1440 512" fill="none" xmlns="http://www.w3.org/2000/svg">
<mask id="mask0_202_811" style="mask-type:luminance" maskUnits="userSpaceOnUse" x="0" y="24" width="1440" height="488">
<path d="M0 24.3965H1439.36V511.875H0V24.3965Z" fill="white"/>
<path d="M0.666667 25.0632H1438.7V511.208H0.666667V25.0632Z" stroke="white" stroke-width="1.33333"/>
</mask>
<g mask="url(#mask0_202_811)">
<path d="M0.454102 297.781C49.3945 341.125 115.195 364.907 180.696 362.952C246.204 360.996 310.349 333.303 356.726 287.095C396.628 247.361 422.226 195.886 454.607 149.831C486.98 103.777 529.892 60.1244 585.307 49.5922C665.266 34.3871 742.214 93.5375 785.28 162.773C828.347 232.009 849.88 312.678 892.946 381.914C935.859 451.15 1012.51 510.6 1092.61 495.549C1159.77 483.054 1206.45 423.757 1249.82 371.081C1293.34 318.398 1349.5 263.913 1417.72 267.378" stroke="url(#paint0_linear_202_811)" stroke-opacity="0.2" stroke-width="1.07054" stroke-miterlimit="10"/>
</g>
<mask id="mask1_202_811" style="mask-type:luminance" maskUnits="userSpaceOnUse" x="0" y="37" width="1440" height="475">
<path d="M0 37.522H1440V511.875H0V37.522Z" fill="white"/>
<path d="M0.666667 38.1886H1439.33V511.208H0.666667V38.1886Z" stroke="white" stroke-width="1.33333"/>
</mask>
<g mask="url(#mask1_202_811)">
<path d="M0.754883 298.081C52.7056 340.071 119.561 357.832 187.325 355.422C253.279 353.166 317.879 327.883 364.856 285.286C405.367 248.562 432.32 201.453 465.901 158.408C499.475 115.364 544.351 73.6742 600.066 62.2338C678.816 45.9814 753.809 101.667 796.722 166.684C839.488 231.855 862.676 308.313 905.742 376.047C948.355 443.02 1022.59 501.57 1100.3 488.027C1165.64 476.887 1211.12 420.593 1254.04 370.327C1296.95 319.907 1352.51 267.224 1418.62 269.487" stroke="url(#paint1_linear_202_811)" stroke-opacity="0.2" stroke-width="1.07054" stroke-miterlimit="10"/>
</g>
<mask id="mask2_202_811" style="mask-type:luminance" maskUnits="userSpaceOnUse" x="0" y="48" width="1440" height="457">
<path d="M0 48.772H1440V504.397H0V48.772Z" fill="white"/>
<path d="M0.666667 49.4386H1439.33V503.73H0.666667V49.4386Z" stroke="white" stroke-width="1.33333"/>
</mask>
<g mask="url(#mask2_202_811)">
<path d="M0.908203 298.535C55.7153 339.17 123.625 350.91 193.652 348.054C260.054 345.644 324.954 322.463 372.685 283.63C413.95 250.07 441.958 207.026 476.887 167.138C511.824 127.251 558.354 87.3703 614.524 74.8752C691.919 57.7146 765.249 109.643 807.715 170.749C850.181 231.855 875.024 304.101 918.091 370.327C960.256 435.197 1032.08 492.392 1107.52 480.498C1170.92 470.566 1215.34 417.583 1257.65 369.572C1299.96 321.562 1354.78 270.542 1418.92 271.743" stroke="url(#paint2_linear_202_811)" stroke-opacity="0.2" stroke-width="1.07054" stroke-miterlimit="10"/>
</g>
<mask id="mask3_202_811" style="mask-type:luminance" maskUnits="userSpaceOnUse" x="0" y="61" width="1440" height="436">
<path d="M0 61.897H1440V496.897H0V61.897Z" fill="white"/>
<path d="M0.666667 62.5636H1439.33V496.23H0.666667V62.5636Z" stroke="white" stroke-width="1.33333"/>
</mask>
<g mask="url(#mask3_202_811)">
<path d="M1.05469 298.982C58.8794 338.115 127.698 343.689 200.127 340.525C267.129 337.668 332.336 317.043 380.669 281.829C422.534 251.272 451.743 212.439 488.034 175.569C524.326 138.691 572.512 100.767 629.275 87.2168C705.469 69.1553 776.997 117.319 819.162 174.36C861.474 231.409 887.673 299.436 930.893 364.307C972.597 427.068 1042.17 483.208 1115.35 472.822C1176.94 464.092 1220.3 414.272 1261.87 368.672C1303.42 323.064 1357.79 273.699 1419.82 273.699" stroke="url(#paint3_linear_202_811)" stroke-opacity="0.2" stroke-width="1.07054" stroke-miterlimit="10"/>
</g>
<mask id="mask4_202_811" style="mask-type:luminance" maskUnits="userSpaceOnUse" x="0" y="73" width="1440" height="417">
<path d="M0 73.147H1440V489.397H0V73.147Z" fill="white"/>
<path d="M0.666667 73.8136H1439.33V488.73H0.666667V73.8136Z" stroke="white" stroke-width="1.33333"/>
</mask>
<g mask="url(#mask4_202_811)">
<path d="M1.20898 299.436C62.0439 337.214 131.91 336.614 206.602 333.149C274.058 329.993 339.712 311.777 388.799 280.173C431.419 252.781 461.682 218.159 499.329 184.299C536.975 150.432 586.817 114.463 644.033 100.012C718.872 81.0497 788.745 125.596 830.603 178.579C872.468 231.555 900.476 295.225 943.689 358.74C984.946 419.392 1052.26 474.331 1123.03 465.447C1182.66 457.925 1224.98 411.262 1265.93 368.071C1306.89 324.873 1360.65 277.163 1420.58 276.108" stroke="url(#paint4_linear_202_811)" stroke-opacity="0.2" stroke-width="1.07054" stroke-miterlimit="10"/>
</g>
<mask id="mask5_202_811" style="mask-type:luminance" maskUnits="userSpaceOnUse" x="0" y="86" width="1440" height="395">
<path d="M0 86.2715H1440V480.021H0V86.2715Z" fill="white"/>
<path d="M0.666667 86.9382H1439.33V479.355H0.666667V86.9382Z" stroke="white" stroke-width="1.33333"/>
</mask>
<g mask="url(#mask5_202_811)">
<path d="M1.50879 299.889C65.2002 336.313 136.128 329.684 213.223 325.773C281.287 322.316 347.241 306.51 396.929 278.517C440.303 254.135 471.621 223.732 510.622 193.022C549.624 162.319 601.12 128.158 658.791 112.653C732.422 92.9363 800.339 133.571 842.05 182.643C883.762 231.708 913.271 291.005 956.491 353.019C997.448 411.562 1062.19 465.3 1130.71 458.071C1188.53 451.904 1229.64 408.405 1270.15 367.463C1310.5 326.528 1363.66 280.619 1421.48 278.517" stroke="url(#paint5_linear_202_811)" stroke-opacity="0.2" stroke-width="1.07054" stroke-miterlimit="10"/>
</g>
<mask id="mask6_202_811" style="mask-type:luminance" maskUnits="userSpaceOnUse" x="0" y="97" width="1440" height="376">
<path d="M0 97.5215H1440V472.522H0V97.5215Z" fill="white"/>
<path d="M0.666667 98.1882H1439.33V471.855H0.666667V98.1882Z" stroke="white" stroke-width="1.33333"/>
</mask>
<g mask="url(#mask6_202_811)">
<path d="M1.65527 300.337C68.3642 335.405 140.193 322.617 219.697 318.398C288.215 314.641 354.617 301.245 404.912 276.862C449.033 255.49 481.56 229.299 521.763 201.753C561.965 174.214 615.271 141.855 673.396 125.295C745.678 104.824 811.933 141.555 853.344 186.555C894.748 231.555 925.774 286.64 969.14 347.299C1009.49 403.74 1072.13 456.416 1138.24 450.549C1194.26 445.583 1234.31 405.241 1274.06 366.716C1313.82 328.183 1366.22 283.93 1422.08 280.62" stroke="url(#paint6_linear_202_811)" stroke-opacity="0.2" stroke-width="1.07054" stroke-miterlimit="10"/>
</g>
<mask id="mask7_202_811" style="mask-type:luminance" maskUnits="userSpaceOnUse" x="0" y="108" width="1440" height="358">
<path d="M0 108.771H1440V465.021H0V108.771Z" fill="white"/>
<path d="M0.666667 109.438H1439.33V464.355H0.666667V109.438Z" stroke="white" stroke-width="1.33333"/>
</mask>
<g mask="url(#mask7_202_811)">
<path d="M1.80957 300.791C71.375 334.357 144.412 315.688 226.172 310.876C295.291 306.811 362.146 295.671 413.042 275.207C458.072 256.992 491.499 235.019 533.057 210.483C574.615 185.954 629.429 155.551 688.155 137.937C759.229 116.718 823.674 149.677 864.785 190.62C905.896 231.555 938.57 282.429 981.936 341.579C1021.84 395.91 1082.23 447.385 1146.07 443.173C1200.12 439.563 1239.13 402.385 1278.28 366.108C1317.43 329.838 1369.23 287.395 1422.99 283.029" stroke="url(#paint7_linear_202_811)" stroke-opacity="0.2" stroke-width="1.07054" stroke-miterlimit="10"/>
</g>
<mask id="mask8_202_811" style="mask-type:luminance" maskUnits="userSpaceOnUse" x="0" y="120" width="1440" height="338">
<path d="M0 120.021H1440V457.521H0V120.021Z" fill="white"/>
<path d="M0.666667 120.688H1439.33V456.855H0.666667V120.688Z" stroke="white" stroke-width="1.33333"/>
</mask>
<g mask="url(#mask8_202_811)">
<path d="M1.96289 301.245C74.5386 333.449 148.477 308.62 232.646 303.5C302.219 299.282 369.675 290.405 421.025 273.544C466.802 258.347 501.284 240.585 544.197 219.213C587.117 197.841 643.733 169.394 702.912 150.732C772.778 128.759 835.422 157.807 876.233 194.685C917.19 231.708 951.218 278.217 994.739 336.013C1034.19 388.234 1092.31 438.508 1153.75 435.798C1206 433.388 1243.95 399.374 1282.35 365.507C1320.89 331.647 1372.09 290.859 1423.59 285.285" stroke="url(#paint8_linear_202_811)" stroke-opacity="0.2" stroke-width="1.07054" stroke-miterlimit="10"/>
</g>
<mask id="mask9_202_811" style="mask-type:luminance" maskUnits="userSpaceOnUse" x="0" y="133" width="1440" height="318">
<path d="M0 133.147H1440V450.022H0V133.147Z" fill="white"/>
<path d="M0.666667 133.814H1439.33V449.355H0.666667V133.814Z" stroke="white" stroke-width="1.33333"/>
</mask>
<g mask="url(#mask9_202_811)">
<path d="M2.10938 301.845C77.5488 332.695 152.541 301.845 239.121 296.272C309.141 291.76 377.204 285.439 429.009 272.043C475.686 260.002 511.069 246.306 555.344 227.944C599.612 209.582 658.037 183.244 717.671 163.374C786.181 140.647 847.016 165.783 887.673 198.742C928.33 231.709 963.867 273.999 1007.69 330.293C1046.69 380.412 1102.4 429.624 1161.58 428.422C1211.87 427.368 1248.76 396.364 1286.71 364.907C1324.66 333.449 1375.25 294.316 1424.64 287.695" stroke="url(#paint9_linear_202_811)" stroke-opacity="0.2" stroke-width="1.07054" stroke-miterlimit="10"/>
</g>
<mask id="mask10_202_811" style="mask-type:luminance" maskUnits="userSpaceOnUse" x="0" y="144" width="1440" height="299">
<path d="M0 144.397H1440V442.522H0V144.397Z" fill="white"/>
<path d="M0.666667 145.064H1439.33V441.855H0.666667V145.064Z" stroke="white" stroke-width="1.33333"/>
</mask>
<g mask="url(#mask10_202_811)">
<path d="M2.40918 302.446C80.8662 331.948 156.906 294.924 245.595 289.05C316.223 284.238 384.733 280.32 436.984 270.542C484.57 261.657 520.861 252.026 566.484 236.821C612.114 221.623 672.04 197.087 732.121 176.169C799.43 152.842 858.464 173.913 898.813 202.961C939.169 232.009 976.215 269.934 1020.18 324.719C1058.58 372.737 1112.19 419.092 1168.96 421.047C1217.45 422.702 1253.13 393.501 1290.48 364.306C1327.82 335.259 1377.66 297.78 1425.09 290.105" stroke="url(#paint10_linear_202_811)" stroke-opacity="0.2" stroke-width="1.07054" stroke-miterlimit="10"/>
</g>
<mask id="mask11_202_811" style="mask-type:luminance" maskUnits="userSpaceOnUse" x="0" y="155" width="1440" height="282">
<path d="M0 155.647H1440V436.897H0V155.647Z" fill="white"/>
<path d="M0.666667 156.314H1439.33V436.23H0.666667V156.314Z" stroke="white" stroke-width="1.33333"/>
</mask>
<g mask="url(#mask11_202_811)">
<path d="M2.56348 303.2C84.0234 331.347 160.972 288.296 252.07 281.828C323.144 276.863 392.263 275.354 445.115 269.033C493.608 263.313 530.947 257.893 577.778 245.705C624.609 233.511 686.345 211.084 747.033 189.111C813.134 165.183 870.359 182.336 910.407 207.173C950.464 232.009 989.011 265.869 1033.13 319.306C1071.08 365.361 1122.43 412.17 1176.79 413.972C1223.47 415.481 1258.1 390.798 1294.69 364.006C1331.29 337.214 1380.67 301.391 1426 292.661" stroke="url(#paint11_linear_202_811)" stroke-opacity="0.2" stroke-width="1.07054" stroke-miterlimit="10"/>
</g>
<mask id="mask12_202_811" style="mask-type:luminance" maskUnits="userSpaceOnUse" x="0" y="166" width="1440" height="264">
<path d="M0 166.897H1440V429.397H0V166.897Z" fill="white"/>
<path d="M0.666667 167.564H1439.33V428.73H0.666667V167.564Z" stroke="white" stroke-width="1.33333"/>
</mask>
<g mask="url(#mask12_202_811)">
<path d="M2.70996 303.947C87.041 330.593 165.19 281.674 258.552 274.753C330.227 269.487 399.792 270.388 453.098 267.678C502.493 265.122 540.74 263.767 588.926 254.736C637.258 245.705 700.503 225.234 761.638 202.053C826.384 177.524 881.799 190.62 921.701 211.538C961.611 232.456 1001.51 261.958 1045.78 313.886C1083.13 357.832 1132.37 403.439 1184.47 406.75C1229.34 409.606 1262.77 387.934 1298.76 363.552C1334.74 339.169 1383.54 305.002 1426.75 295.224" stroke="url(#paint12_linear_202_811)" stroke-opacity="0.2" stroke-width="1.07054" stroke-miterlimit="10"/>
</g>
<mask id="mask13_202_811" style="mask-type:luminance" maskUnits="userSpaceOnUse" x="0" y="178" width="1440" height="244">
<path d="M0 178.147H1440V421.897H0V178.147Z" fill="white"/>
<path d="M0.666667 178.814H1439.33V421.23H0.666667V178.814Z" stroke="white" stroke-width="1.33333"/>
</mask>
<g mask="url(#mask13_202_811)">
<path d="M2.86426 305.002C90.1982 330.292 169.256 275.207 265.027 267.978C337.149 262.412 407.622 262.258 461.082 266.623C511.224 270.688 550.525 269.934 600.213 264.067C649.908 258.046 714.961 239.684 776.397 215.302C839.942 190.165 893.548 199.196 933.15 216.057C972.752 232.91 1014.16 258.193 1058.58 308.62C1095.32 350.456 1142.45 395.009 1192.15 399.829C1235.06 403.886 1267.43 385.524 1302.82 363.405C1338.21 341.425 1386.39 308.92 1427.5 297.934" stroke="url(#paint13_linear_202_811)" stroke-opacity="0.2" stroke-width="1.07054" stroke-miterlimit="10"/>
</g>
<mask id="mask14_202_811" style="mask-type:luminance" maskUnits="userSpaceOnUse" x="0" y="187" width="1440" height="230">
<path d="M0 187.521H1440V416.271H0V187.521Z" fill="white"/>
<path d="M0.666667 188.188H1439.33V415.605H0.666667V188.188Z" stroke="white" stroke-width="1.33333"/>
</mask>
<g mask="url(#mask14_202_811)">
<path d="M3.16406 306.057C93.3618 329.993 173.474 268.879 271.648 261.057C344.377 255.337 415.151 261.357 469.211 265.569C520.408 269.487 560.464 276.255 611.506 273.245C662.556 270.234 729.265 253.982 791.301 228.545C853.645 202.808 905.442 207.927 944.743 220.723C984.045 233.511 1026.96 254.582 1071.53 303.647C1107.67 343.535 1152.69 386.88 1199.98 393.054C1241.09 398.474 1272.41 383.122 1307.19 363.406C1341.97 343.689 1389.4 312.978 1428.56 300.945" stroke="url(#paint14_linear_202_811)" stroke-opacity="0.2" stroke-width="1.07054" stroke-miterlimit="10"/>
</g>
<mask id="mask15_202_811" style="mask-type:luminance" maskUnits="userSpaceOnUse" x="0" y="198" width="1440" height="213">
<path d="M0 198.771H1440V410.646H0V198.771Z" fill="white"/>
<path d="M0.666667 199.438H1439.33V409.98H0.666667V199.438Z" stroke="white" stroke-width="1.33333"/>
</mask>
<g mask="url(#mask15_202_811)">
<path d="M3.31836 307.411C96.5263 329.992 177.686 262.858 278.123 254.582C351.307 248.561 422.681 257.145 477.342 264.821C529.446 272.043 570.403 282.729 622.801 282.883C675.052 283.029 743.57 268.879 806.06 242.094C867.195 215.903 917.19 216.803 956.184 225.688C995.186 234.565 1039.61 251.271 1084.33 298.835C1119.87 336.613 1162.79 378.757 1207.65 386.579C1246.96 393.354 1277.07 381.012 1311.26 363.705C1345.44 346.391 1392.27 317.343 1429.31 304.101" stroke="url(#paint15_linear_202_811)" stroke-opacity="0.2" stroke-width="1.07054" stroke-miterlimit="10"/>
</g>
<mask id="mask16_202_811" style="mask-type:luminance" maskUnits="userSpaceOnUse" x="0" y="206" width="1440" height="200">
<path d="M0 206.272H1440V405.022H0V206.272Z" fill="white"/>
<path d="M0.666667 206.939H1439.33V404.355H0.666667V206.939Z" stroke="white" stroke-width="1.33333"/>
</mask>
<g mask="url(#mask16_202_811)">
<path d="M3.46387 309.367C99.5356 330.439 181.75 257.292 284.597 248.715C358.381 242.541 430.209 253.681 485.324 264.668C538.329 275.207 580.187 289.804 633.947 293.115C687.699 296.425 757.873 284.384 820.663 256.237C880.597 229.599 928.63 226.289 967.477 231.108C1006.18 235.92 1051.95 248.415 1096.98 294.47C1131.91 330.293 1172.72 371.228 1215.18 380.412C1252.68 388.535 1281.59 379.358 1315.17 364.306C1348.75 349.401 1394.98 322.009 1429.91 307.712" stroke="url(#paint16_linear_202_811)" stroke-opacity="0.2" stroke-width="1.07054" stroke-miterlimit="10"/>
</g>
<mask id="mask17_202_811" style="mask-type:luminance" maskUnits="userSpaceOnUse" x="0" y="215" width="1440" height="189">
<path d="M0 215.646H1440V403.146H0V215.646Z" fill="white"/>
<path d="M0.666667 216.313H1439.33V402.48H0.666667V216.313Z" stroke="white" stroke-width="1.33333"/>
</mask>
<g mask="url(#mask17_202_811)">
<path d="M3.61816 311.93C102.7 331.647 185.815 252.48 290.925 243.449C365.156 236.974 437.585 250.824 493.154 265.121C547.06 278.964 589.973 297.48 644.941 303.947C699.902 310.275 771.877 300.336 835.122 271.142C893.847 243.896 940.078 236.674 978.625 237.428C1017.17 238.175 1064.15 246.459 1109.63 291.159C1143.96 324.872 1182.66 364.76 1222.87 375.446C1258.55 384.923 1286.41 378.756 1319.24 366.107C1352.21 353.466 1397.84 327.882 1430.67 312.531" stroke="url(#paint17_linear_202_811)" stroke-opacity="0.2" stroke-width="1.07054" stroke-miterlimit="10"/>
</g>
<mask id="mask18_202_811" style="mask-type:luminance" maskUnits="userSpaceOnUse" x="0" y="217" width="1440" height="187">
<path d="M0 217.522H1440V403.147H0V217.522Z" fill="white"/>
<path d="M0.666667 218.189H1439.33V402.48H0.666667V218.189Z" stroke="white" stroke-width="1.33333"/>
</mask>
<g mask="url(#mask18_202_811)">
<path d="M3.91895 318.552C106.011 336.914 190.188 251.726 297.547 242.094C372.386 235.466 445.269 251.726 501.438 269.487C556.099 286.794 600.066 309.221 656.382 318.698C712.698 328.183 786.482 320.354 850.181 289.804C907.698 262.111 952.119 250.671 990.366 247.36C1028.61 244.05 1077.11 248.261 1122.73 291.306C1156.31 323.064 1193.05 361.75 1230.85 373.784C1264.72 384.624 1291.38 381.467 1323.76 371.381C1356.13 361.142 1401 337.214 1431.72 320.654" stroke="url(#paint18_linear_202_811)" stroke-opacity="0.2" stroke-width="1.07054" stroke-miterlimit="10"/>
</g>
<mask id="mask19_202_811" style="mask-type:luminance" maskUnits="userSpaceOnUse" x="0" y="219" width="1440" height="188">
<path d="M0 219.397H1440V406.897H0V219.397Z" fill="white"/>
<path d="M0.666667 220.064H1439.33V406.23H0.666667V220.064Z" stroke="white" stroke-width="1.33333"/>
</mask>
<g mask="url(#mask19_202_811)">
<path d="M4.06445 326.983C109.02 343.989 194.252 252.781 304.02 242.696C379.313 235.774 452.643 254.737 509.413 275.808C564.982 296.426 609.85 322.764 667.521 335.259C725.2 347.747 800.639 342.18 864.784 310.276C921.1 282.129 963.713 266.477 1001.66 259.248C1039.61 252.027 1089.45 251.873 1135.38 293.57C1168.35 323.364 1202.99 360.842 1238.38 374.238C1270.45 386.433 1295.9 386.433 1327.67 378.604C1359.29 370.774 1403.71 348.501 1432.32 330.894" stroke="url(#paint19_linear_202_811)" stroke-opacity="0.2" stroke-width="1.07054" stroke-miterlimit="10"/>
</g>
<mask id="mask20_202_811" style="mask-type:luminance" maskUnits="userSpaceOnUse" x="0" y="219" width="1440" height="192">
<path d="M0 219.397H1440V410.647H0V219.397Z" fill="white"/>
<path d="M0.666667 220.064H1439.33V409.98H0.666667V220.064Z" stroke="white" stroke-width="1.33333"/>
</mask>
<g mask="url(#mask20_202_811)">
<path d="M4.21875 335.105C112.185 350.611 198.318 253.528 310.496 242.996C386.389 235.921 460.173 257.447 517.397 281.829C573.713 305.911 619.643 336.013 678.669 351.665C737.695 367.317 814.944 364.007 879.389 330.74C934.658 302.293 975.161 282.429 1012.95 270.989C1050.6 259.702 1101.65 255.491 1148.03 295.525C1180.25 323.364 1212.93 359.788 1245.9 374.539C1276.17 388.089 1300.56 391.099 1331.59 385.679C1362.6 380.259 1406.43 359.641 1432.92 340.825" stroke="url(#paint20_linear_202_811)" stroke-opacity="0.2" stroke-width="1.07054" stroke-miterlimit="10"/>
</g>
<mask id="mask21_202_811" style="mask-type:luminance" maskUnits="userSpaceOnUse" x="0" y="219" width="1440" height="196">
<path d="M0 219.397H1440V414.397H0V219.397Z" fill="white"/>
<path d="M0.666667 220.064H1439.33V413.73H0.666667V220.064Z" stroke="white" stroke-width="1.33333"/>
</mask>
<g mask="url(#mask21_202_811)">
<path d="M4.37305 342.481C115.196 356.631 202.537 253.528 316.978 242.542C393.318 235.166 467.557 259.402 525.381 287.241C582.444 314.641 629.429 348.801 689.81 367.463C750.191 386.133 829.248 385.078 894.148 350.457C948.208 321.563 986.909 297.481 1024.25 282.129C1061.59 266.777 1114 258.501 1160.68 296.88C1192.15 322.764 1222.87 357.986 1253.58 374.092C1282.05 389.143 1305.23 395.01 1335.65 392C1366.07 388.835 1409.28 370.027 1433.68 350.156" stroke="url(#paint21_linear_202_811)" stroke-opacity="0.2" stroke-width="1.07054" stroke-miterlimit="10"/>
</g>
<mask id="mask22_202_811" style="mask-type:luminance" maskUnits="userSpaceOnUse" x="0" y="217" width="1440" height="204">
<path d="M0 217.522H1440V420.022H0V217.522Z" fill="white"/>
<path d="M0.666667 218.189H1439.33V419.355H0.666667V218.189Z" stroke="white" stroke-width="1.33333"/>
</mask>
<g mask="url(#mask22_202_811)">
<path d="M4.67285 349.401C118.506 362.197 206.748 253.081 323.599 241.486C400.547 233.964 475.232 260.756 533.657 291.914C591.636 322.617 639.668 360.695 701.257 382.514C762.839 404.34 843.852 405.541 909.053 369.426C962.058 340.07 998.803 311.777 1035.84 292.514C1072.89 273.244 1126.65 260.903 1173.63 297.626C1204.34 321.708 1233.11 355.729 1261.41 373.183C1287.91 389.589 1310.2 398.62 1340.02 397.866C1369.83 397.119 1412.29 379.958 1434.73 359.04" stroke="url(#paint22_linear_202_811)" stroke-opacity="0.2" stroke-width="1.07054" stroke-miterlimit="10"/>
</g>
<mask id="mask23_202_811" style="mask-type:luminance" maskUnits="userSpaceOnUse" x="0" y="210" width="1440" height="222">
<path d="M0 210.021H1440V431.271H0V210.021Z" fill="white"/>
<path d="M0.666667 210.688H1439.33V430.605H0.666667V210.688Z" stroke="white" stroke-width="1.33333"/>
</mask>
<g mask="url(#mask23_202_811)">
<path d="M4.81934 349.555C121.523 360.996 210.967 245.852 330.073 233.811C407.475 225.988 482.615 255.49 541.64 289.951C600.366 324.118 649.453 365.961 712.397 390.944C775.342 415.927 858.156 419.392 923.664 381.767C975.461 352.111 1010.4 319.453 1047.14 296.125C1084.03 272.797 1138.84 256.391 1186.27 291.459C1216.24 313.586 1242.89 346.391 1268.94 365.207C1293.64 383.122 1314.72 395.009 1343.94 396.665C1373.14 398.32 1415.01 382.814 1435.33 360.695" stroke="url(#paint23_linear_202_811)" stroke-opacity="0.2" stroke-width="1.07054" stroke-miterlimit="10"/>
</g>
<mask id="mask24_202_811" style="mask-type:luminance" maskUnits="userSpaceOnUse" x="0" y="202" width="1440" height="243">
<path d="M0 202.522H1440V444.397H0V202.522Z" fill="white"/>
<path d="M0.666667 203.189H1439.33V443.73H0.666667V203.189Z" stroke="white" stroke-width="1.33333"/>
</mask>
<g mask="url(#mask24_202_811)">
<path d="M4.97363 349.71C124.681 359.788 215.032 238.784 336.548 226.135C414.551 218.313 489.991 250.218 549.624 287.996C609.097 325.474 659.246 371.228 723.538 399.375C787.837 427.522 872.469 433.242 938.269 394.256C989.012 364.153 1021.84 327.429 1058.43 300.037C1095.02 272.644 1151.04 252.327 1198.92 285.586C1228.13 305.911 1252.83 337.515 1276.47 357.686C1299.21 377.102 1319.24 392 1347.85 395.911C1376.46 399.829 1417.72 386.133 1435.94 362.952" stroke="url(#paint24_linear_202_811)" stroke-opacity="0.2" stroke-width="1.07054" stroke-miterlimit="10"/>
</g>
<mask id="mask25_202_811" style="mask-type:luminance" maskUnits="userSpaceOnUse" x="0" y="195" width="1440" height="261">
<path d="M0 195.022H1440V455.647H0V195.022Z" fill="white"/>
<path d="M0.666667 195.689H1439.33V454.98H0.666667V195.689Z" stroke="white" stroke-width="1.33333"/>
</mask>
<g mask="url(#mask25_202_811)">
<path d="M5.11914 349.709C127.844 358.286 219.096 231.409 342.875 218.313C421.325 210.183 497.219 244.805 557.599 285.893C617.68 326.828 669.03 376.494 734.684 407.505C800.339 438.508 886.918 446.785 953.027 406.296C1002.71 375.893 1033.59 334.805 1069.88 303.347C1106.16 271.89 1163.39 247.815 1211.87 279.265C1240.33 297.781 1262.92 328.183 1284.3 349.556C1305.23 370.327 1324.2 388.235 1352.06 394.556C1380.07 400.876 1420.73 388.835 1436.84 364.453" stroke="url(#paint25_linear_202_811)" stroke-opacity="0.2" stroke-width="1.07054" stroke-miterlimit="10"/>
</g>
<mask id="mask26_202_811" style="mask-type:luminance" maskUnits="userSpaceOnUse" x="0" y="187" width="1440" height="282">
<path d="M0 187.521H1440V468.771H0V187.521Z" fill="white"/>
<path d="M0.666667 188.188H1439.33V468.105H0.666667V188.188Z" stroke="white" stroke-width="1.33333"/>
</mask>
<g mask="url(#mask26_202_811)">
<path d="M5.41992 349.709C131.008 356.93 223.462 223.879 349.497 210.336C428.555 202.052 504.748 239.23 565.73 283.63C626.565 327.882 678.97 381.466 745.979 415.627C812.988 449.794 901.523 460.326 967.785 418.337C1016.42 387.633 1045.33 342.179 1081.32 306.811C1117.31 271.442 1175.73 243.449 1224.67 272.944C1252.38 289.65 1272.86 318.852 1292.13 341.579C1310.95 363.852 1329.02 384.623 1356.43 393.354C1383.84 402.084 1423.74 391.698 1437.9 366.261" stroke="url(#paint26_linear_202_811)" stroke-opacity="0.2" stroke-width="1.07054" stroke-miterlimit="10"/>
</g>
<mask id="mask27_202_811" style="mask-type:luminance" maskUnits="userSpaceOnUse" x="0" y="180" width="1440" height="301">
<path d="M0 180.022H1440V480.022H0V180.022Z" fill="white"/>
<path d="M0.666667 180.689H1439.33V479.355H0.666667V180.689Z" stroke="white" stroke-width="1.33333"/>
</mask>
<g mask="url(#mask27_202_811)">
<path d="M5.57324 349.709C134.172 355.576 227.526 216.504 355.971 202.507C435.483 193.931 512.123 233.811 573.713 281.528C635.302 329.238 688.908 386.579 757.272 423.904C825.636 461.235 916.134 474.177 982.536 430.679C1030.12 399.521 1057.07 350.01 1092.77 310.576C1128.45 271.142 1187.93 239.531 1237.47 267.078C1264.42 281.975 1282.79 309.968 1299.81 333.904C1316.67 357.685 1333.7 381.467 1360.49 392.453C1387.15 403.44 1426.6 394.856 1438.5 368.218" stroke="url(#paint27_linear_202_811)" stroke-opacity="0.2" stroke-width="1.07054" stroke-miterlimit="10"/>
</g>
<mask id="mask28_202_811" style="mask-type:luminance" maskUnits="userSpaceOnUse" x="0" y="170" width="1440" height="324">
<path d="M0 170.646H1440V493.146H0V170.646Z" fill="white"/>
<path d="M0.666667 171.313H1439.33V492.48H0.666667V171.313Z" stroke="white" stroke-width="1.33333"/>
</mask>
<g mask="url(#mask28_202_811)">
<path d="M5.72754 349.555C137.183 354.067 231.592 208.981 362.446 194.53C442.558 185.653 519.507 228.244 581.697 279.418C643.887 330.592 698.694 391.845 768.413 432.187C838.132 472.521 930.586 488.026 997.295 442.873C1043.83 411.415 1068.67 357.531 1104.21 314.032C1139.74 270.541 1200.28 235.319 1250.27 260.756C1276.47 273.998 1292.73 300.636 1307.49 325.927C1322.4 351.21 1338.51 377.848 1364.56 391.244C1390.61 404.64 1429.46 397.719 1439.25 370.026" stroke="url(#paint28_linear_202_811)" stroke-opacity="0.2" stroke-width="1.07054" stroke-miterlimit="10"/>
</g>
<mask id="mask29_202_811" style="mask-type:luminance" maskUnits="userSpaceOnUse" x="0" y="166" width="1440" height="316">
<path d="M0 166.897H1440V481.897H0V166.897Z" fill="white"/>
<path d="M0.666667 167.564H1439.33V481.23H0.666667V167.564Z" stroke="white" stroke-width="1.33333"/>
</mask>
<g mask="url(#mask29_202_811)">
<path d="M6.17383 340.979C50.749 343.689 91.8525 328.484 131.308 306.658C169.101 285.893 205.546 258.948 243.186 236.221C281.74 212.893 321.789 193.931 365.61 189.712C444.514 182.036 519.953 224.333 581.242 274.753C642.531 325.173 696.584 385.825 765.702 424.658C825.029 457.925 900.021 471.467 961.457 446.785C972.297 442.419 982.69 436.853 992.629 430.078C1038.71 398.174 1064.3 344.736 1100.44 302.746C1136.58 260.757 1196.51 228.098 1246.21 253.982C1272.25 267.678 1288.82 294.316 1304.03 319.453C1311.71 331.948 1319.68 344.736 1329.02 356.03C1338.51 367.317 1349.35 377.102 1362.6 383.569C1389.1 396.365 1427.65 388.835 1437.44 360.996" stroke="url(#paint29_linear_202_811)" stroke-opacity="0.2" stroke-width="1.07054" stroke-miterlimit="10"/>
</g>
<mask id="mask30_202_811" style="mask-type:luminance" maskUnits="userSpaceOnUse" x="0" y="161" width="1440" height="310">
<path d="M0 161.272H1440V470.647H0V161.272Z" fill="white"/>
<path d="M0.666667 161.939H1439.33V469.98H0.666667V161.939Z" stroke="white" stroke-width="1.33333"/>
</mask>
<g mask="url(#mask30_202_811)">
<path d="M6.62793 332.249C50.8955 336.014 92.6069 321.563 132.509 300.037C170.764 279.566 207.502 252.627 245.449 230.054C284.296 206.873 324.953 188.357 368.774 184.746C446.469 178.279 520.253 220.115 580.641 270.088C641.022 320.054 694.482 379.959 762.839 416.983C822.319 449.341 896.403 459.881 957.091 434.143C967.785 429.624 978.024 423.904 987.809 416.983C1033.43 384.624 1059.64 331.648 1096.38 291.006C1133.12 250.518 1192.75 220.269 1241.69 246.607C1267.74 260.603 1284.45 287.395 1300.26 312.378C1308.09 324.873 1316.37 337.515 1326.01 348.655C1335.65 359.788 1346.79 369.273 1360.19 375.447C1386.99 387.635 1425.55 379.659 1435.18 351.665" stroke="url(#paint30_linear_202_811)" stroke-opacity="0.2" stroke-width="1.07054" stroke-miterlimit="10"/>
</g>
<mask id="mask31_202_811" style="mask-type:luminance" maskUnits="userSpaceOnUse" x="0" y="157" width="1440" height="305">
<path d="M0 157.522H1440V461.272H0V157.522Z" fill="white"/>
<path d="M0.666667 158.189H1439.33V460.605H0.666667V158.189Z" stroke="white" stroke-width="1.33333"/>
</mask>
<g mask="url(#mask31_202_811)">
<path d="M7.08301 323.519C51.1968 328.484 93.5161 314.642 133.719 293.57C172.42 273.399 209.312 246.607 247.706 224.034C286.861 201.006 327.964 182.945 372.085 179.935C448.579 174.661 520.862 216.058 580.188 265.569C639.514 315.088 692.373 374.092 760.283 409.607C819.91 440.918 893.093 448.741 952.874 421.949C963.413 417.283 973.506 411.416 983.145 404.495C1028.31 371.683 1055.12 319.153 1092.61 280.02C1129.96 241.041 1189.14 213.194 1237.62 240.14C1263.67 254.583 1280.69 281.375 1296.8 306.211C1304.93 318.553 1313.36 331.194 1323.3 342.034C1333.24 353.02 1344.68 362.198 1358.24 368.072C1385.49 379.659 1423.74 371.228 1433.38 342.935" stroke="url(#paint31_linear_202_811)" stroke-opacity="0.2" stroke-width="1.07054" stroke-miterlimit="10"/>
</g>
<mask id="mask32_202_811" style="mask-type:luminance" maskUnits="userSpaceOnUse" x="0" y="151" width="1440" height="300">
<path d="M0 151.897H1440V450.022H0V151.897Z" fill="white"/>
<path d="M0.666667 152.564H1439.33V449.355H0.666667V152.564Z" stroke="white" stroke-width="1.33333"/>
</mask>
<g mask="url(#mask32_202_811)">
<path d="M7.5293 314.641C51.3501 320.808 94.2627 307.566 134.773 286.795C173.774 266.778 211.113 240.132 249.814 217.713C289.27 194.832 330.828 177.224 375.095 174.815C450.542 170.603 521.162 211.839 579.433 260.603C637.712 309.368 690.11 367.764 757.273 401.785C817.2 432.034 889.482 437 948.354 409.16C958.747 404.341 968.686 398.32 978.325 391.245C1023.05 357.986 1050.45 305.911 1088.7 268.279C1126.65 230.654 1185.37 205.371 1233.41 232.91C1259.46 247.815 1276.63 274.6 1293.34 299.282C1301.62 311.631 1310.5 323.972 1320.59 334.805C1330.68 345.645 1342.43 354.522 1356.13 360.088C1383.68 371.082 1421.78 362.197 1431.42 333.604" stroke="url(#paint32_linear_202_811)" stroke-opacity="0.2" stroke-width="1.07054" stroke-miterlimit="10"/>
</g>
<mask id="mask33_202_811" style="mask-type:luminance" maskUnits="userSpaceOnUse" x="0" y="148" width="1440" height="291">
<path d="M0 148.146H1440V438.771H0V148.146Z" fill="white"/>
<path d="M0.666667 148.813H1439.33V438.105H0.666667V148.813Z" stroke="white" stroke-width="1.33333"/>
</mask>
<g mask="url(#mask33_202_811)">
<path d="M7.9834 305.756C51.6504 312.978 95.0171 300.49 135.974 280.019C175.43 260.302 213.076 233.664 252.07 211.391C291.98 188.664 333.992 171.503 378.259 169.694C452.497 166.684 521.616 207.473 578.833 255.79C636.057 304.101 688 361.596 754.563 394.108C814.643 423.303 886.018 425.566 944.143 396.664C954.382 391.699 964.167 385.524 973.652 378.456C1018.07 344.736 1045.93 292.961 1084.78 256.838C1123.33 220.722 1181.61 197.995 1229.19 225.834C1255.09 241.039 1272.55 267.978 1289.72 292.514C1298.31 304.855 1307.34 317.043 1317.88 327.582C1328.27 338.115 1340.17 346.845 1354.17 352.111C1382.18 362.651 1420.13 353.166 1429.61 324.272" stroke="url(#paint33_linear_202_811)" stroke-opacity="0.2" stroke-width="1.07054" stroke-miterlimit="10"/>
</g>
<mask id="mask34_202_811" style="mask-type:luminance" maskUnits="userSpaceOnUse" x="0" y="142" width="1440" height="288">
<path d="M0 142.521H1440V429.396H0V142.521Z" fill="white"/>
<path d="M0.666667 143.188H1439.33V428.73H0.666667V143.188Z" stroke="white" stroke-width="1.33333"/>
</mask>
<g mask="url(#mask34_202_811)">
<path d="M8.4375 296.726C51.8042 305.156 95.9253 293.261 137.183 273.244C177.085 253.835 215.032 227.19 254.48 205.063C294.69 182.49 337.148 165.63 381.724 164.582C454.753 162.619 522.363 203.108 578.533 250.971C634.702 298.835 686.199 355.576 751.999 386.433C812.234 414.572 882.707 413.972 940.078 384.023C950.163 378.757 959.802 372.583 969.14 365.361C1013.11 331.193 1041.72 280.019 1081.17 245.251C1120.47 210.637 1178.14 190.319 1225.12 218.759C1251.02 234.419 1268.79 261.357 1286.41 285.739C1295.29 297.934 1304.63 310.122 1315.32 320.507C1326.01 330.893 1338.21 339.323 1352.21 344.289C1380.52 354.221 1418.32 344.289 1427.8 315.241" stroke="url(#paint34_linear_202_811)" stroke-opacity="0.2" stroke-width="1.07054" stroke-miterlimit="10"/>
</g>
<mask id="mask35_202_811" style="mask-type:luminance" maskUnits="userSpaceOnUse" x="0" y="136" width="1440" height="283">
<path d="M0 136.896H1440V418.146H0V136.896Z" fill="white"/>
<path d="M0.666667 137.563H1439.33V417.48H0.666667V137.563Z" stroke="white" stroke-width="1.33333"/>
</mask>
<g mask="url(#mask35_202_811)">
<path d="M8.88477 287.695C51.9512 297.326 96.6728 286.04 138.238 266.323C178.594 247.207 216.687 220.569 256.59 198.596C297.1 176.169 340.166 161.872 384.734 159.309C456.409 154.944 522.517 198.742 577.779 245.852C633.04 292.961 683.936 349.101 749.143 378.303C809.524 405.395 879.09 401.931 935.559 370.927C945.344 365.508 954.983 359.187 964.322 351.811C1007.83 317.043 1037.05 266.477 1077.25 233.21C1117.16 200.097 1174.38 182.336 1220.91 211.084C1246.81 227.043 1264.72 254.135 1282.79 278.364C1291.83 290.559 1301.47 302.446 1312.46 312.678C1323.45 322.917 1335.8 331.04 1350.1 335.559C1378.72 344.89 1416.36 334.504 1425.85 305.156" stroke="url(#paint35_linear_202_811)" stroke-opacity="0.2" stroke-width="1.07054" stroke-miterlimit="10"/>
</g>
<mask id="mask36_202_811" style="mask-type:luminance" maskUnits="userSpaceOnUse" x="0" y="131" width="1440" height="278">
<path d="M0 131.271H1440V408.771H0V131.271Z" fill="white"/>
<path d="M0.666667 131.938H1439.33V408.105H0.666667V131.938Z" stroke="white" stroke-width="1.33333"/>
</mask>
<g mask="url(#mask36_202_811)">
<path d="M9.33789 278.518C52.2505 289.204 97.4262 278.818 139.438 259.248C180.248 240.439 218.642 213.947 258.852 192.121C299.655 169.848 343.176 156.152 388.044 153.896C458.517 150.278 523.117 194.077 577.324 240.739C631.537 287.395 681.979 342.634 746.425 370.327C806.96 396.364 875.778 390.044 931.34 358.132C940.978 352.566 950.463 346.091 959.648 338.715C1002.71 303.501 1032.53 253.381 1073.34 221.469C1113.84 189.865 1170.61 174.514 1216.69 203.862C1242.59 220.268 1260.81 247.36 1279.18 271.442C1288.52 283.484 1298.3 295.371 1309.6 305.456C1320.74 315.388 1333.54 323.364 1347.85 327.583C1376.91 336.313 1414.4 325.473 1423.74 295.825" stroke="url(#paint36_linear_202_811)" stroke-opacity="0.2" stroke-width="1.07054" stroke-miterlimit="10"/>
</g>
<mask id="mask37_202_811" style="mask-type:luminance" maskUnits="userSpaceOnUse" x="0" y="125" width="1440" height="275">
<path d="M0 125.646H1440V399.396H0V125.646Z" fill="white"/>
<path d="M0.666667 126.313H1439.33V398.73H0.666667V126.313Z" stroke="white" stroke-width="1.33333"/>
</mask>
<g mask="url(#mask37_202_811)">
<path d="M9.79199 269.333C52.4043 281.227 98.3344 271.442 140.646 252.326C181.75 233.81 220.605 207.326 261.108 185.653C302.219 163.527 346.186 150.431 391.208 148.622C460.473 145.766 523.571 189.565 576.723 235.773C629.882 281.974 679.87 336.159 743.569 362.497C804.404 387.48 872.16 378.456 926.974 345.343C936.459 339.623 945.798 333.002 954.828 325.473C997.448 289.804 1027.87 240.131 1069.42 209.728C1110.68 179.633 1166.85 166.838 1212.47 196.64C1238.22 213.493 1256.75 240.585 1275.72 264.521C1285.2 276.554 1295.44 288.295 1306.89 298.08C1318.33 307.865 1331.29 315.541 1345.89 319.452C1375.25 327.582 1412.6 316.296 1421.93 286.339" stroke="url(#paint37_linear_202_811)" stroke-opacity="0.2" stroke-width="1.07054" stroke-miterlimit="10"/>
</g>
<mask id="mask38_202_811" style="mask-type:luminance" maskUnits="userSpaceOnUse" x="0" y="120" width="1440" height="271">
<path d="M0 120.021H1440V390.021H0V120.021Z" fill="white"/>
<path d="M0.666667 120.688H1439.33V389.355H0.666667V120.688Z" stroke="white" stroke-width="1.33333"/>
</mask>
<g mask="url(#mask38_202_811)">
<path d="M10.2393 260.002C52.5586 272.944 99.082 263.913 141.848 245.105C183.406 226.889 222.561 200.398 263.364 178.879C304.775 156.907 349.197 141.702 394.372 143.056C462.436 145.166 524.018 184.9 576.277 230.5C628.528 276.108 677.915 329.538 741.006 354.375C801.994 378.303 868.85 366.416 922.756 332.395C932.094 326.528 941.279 319.753 950.317 312.231C992.475 276.108 1023.49 226.889 1065.81 197.995C1107.67 169.394 1163.39 159.009 1208.41 189.265C1234.16 206.572 1252.83 233.664 1272.25 257.446C1282.05 269.333 1292.43 280.92 1304.18 290.705C1315.77 300.337 1329.02 307.566 1343.78 311.323C1373.6 318.852 1410.64 307.112 1419.98 277.009" stroke="url(#paint38_linear_202_811)" stroke-opacity="0.2" stroke-width="1.07054" stroke-miterlimit="10"/>
</g>
<mask id="mask39_202_811" style="mask-type:luminance" maskUnits="userSpaceOnUse" x="0" y="114" width="1440" height="265">
<path d="M0 114.396H1439.36V378.771H0V114.396Z" fill="white"/>
<path d="M0.666667 115.063H1438.7V378.105H0.666667V115.063Z" stroke="white" stroke-width="1.33333"/>
</mask>
<g mask="url(#mask39_202_811)">
<path d="M10.6934 250.671C52.8589 264.821 99.8364 256.391 142.903 237.876C184.915 219.968 224.37 193.476 265.474 172.104C307.185 150.432 352.06 135.381 397.537 137.49C464.392 140.647 524.473 180.08 575.669 225.088C626.865 270.088 675.805 322.763 738.149 346.091C799.431 368.972 865.385 354.375 918.391 319.153C927.575 312.978 936.613 306.211 945.498 298.535C987.356 261.958 1018.83 213.193 1061.75 185.654C1104.21 158.408 1159.47 150.732 1204.04 181.435C1229.79 199.043 1248.76 226.289 1268.64 249.917C1278.73 261.811 1289.27 273.244 1301.47 282.729C1313.36 292.06 1326.91 299.135 1341.67 302.6C1371.79 309.521 1408.84 297.326 1418.02 266.924" stroke="url(#paint39_linear_202_811)" stroke-opacity="0.2" stroke-width="1.07054" stroke-miterlimit="10"/>
</g>
<mask id="mask40_202_811" style="mask-type:luminance" maskUnits="userSpaceOnUse" x="0" y="108" width="1440" height="262">
<path d="M0 108.771H1439.36V369.396H0V108.771Z" fill="white"/>
<path d="M0.666667 109.438H1438.7V368.73H0.666667V109.438Z" stroke="white" stroke-width="1.33333"/>
</mask>
<g mask="url(#mask40_202_811)">
<path d="M11.1475 241.186C53.0054 256.538 100.737 248.715 144.111 230.654C186.57 213.046 226.172 186.555 267.737 165.329C309.748 143.811 355.071 129.06 400.693 131.916C466.348 135.981 524.773 175.268 575.068 219.814C625.364 264.367 673.85 315.988 735.439 337.814C796.875 359.641 861.921 342.18 914.172 306.057C923.21 299.736 932.094 292.814 940.825 284.985C982.236 247.961 1014.46 199.65 1057.98 173.613C1101.04 147.876 1155.86 142.756 1199.98 173.913C1225.58 191.975 1244.85 219.213 1265.18 242.695C1275.42 254.582 1286.41 265.869 1298.76 275.207C1310.95 284.384 1324.66 291.159 1339.72 294.316C1370.28 300.637 1407.03 287.995 1416.21 257.292" stroke="url(#paint40_linear_202_811)" stroke-opacity="0.2" stroke-width="1.07054" stroke-miterlimit="10"/>
</g>
<mask id="mask41_202_811" style="mask-type:luminance" maskUnits="userSpaceOnUse" x="0" y="103" width="1436" height="258">
<path d="M0 103.146H1435.61V360.021H0V103.146Z" fill="white"/>
<path d="M0.666667 103.813H1434.95V359.355H0.666667V103.813Z" stroke="white" stroke-width="1.33333"/>
</mask>
<g mask="url(#mask41_202_811)">
<path d="M11.5938 231.708C53.3052 248.115 101.491 241.039 145.312 223.278C188.225 205.971 228.134 179.633 269.992 158.408C312.304 137.036 358.081 122.585 403.857 126.196C468.31 131.169 525.226 170.302 574.467 214.401C623.708 258.5 671.74 309.221 732.575 329.538C794.311 350.156 858.31 330.138 909.66 292.814C918.544 286.34 927.428 279.264 936.012 271.442C976.969 233.964 1009.8 186.1 1054.06 161.418C1097.73 137.189 1151.94 134.479 1195.76 166.083C1221.36 184.599 1240.93 211.838 1261.57 235.165C1272.11 246.906 1283.25 258.046 1295.9 267.223C1308.24 276.254 1322.4 282.729 1337.45 285.585C1368.32 291.305 1405.07 278.217 1414.1 247.206" stroke="url(#paint41_linear_202_811)" stroke-opacity="0.2" stroke-width="1.07054" stroke-miterlimit="10"/>
</g>
<mask id="mask42_202_811" style="mask-type:luminance" maskUnits="userSpaceOnUse" x="0" y="97" width="1434" height="254">
<path d="M0 97.5215H1433.74V350.646H0V97.5215Z" fill="white"/>
<path d="M0.666667 98.1882H1433.07V349.98H0.666667V98.1882Z" stroke="white" stroke-width="1.33333"/>
</mask>
<g mask="url(#mask42_202_811)">
<path d="M12.0488 222.224C53.4599 239.832 102.247 233.364 146.368 215.903C189.581 198.896 229.937 172.559 272.102 151.487C314.715 130.261 360.945 116.118 407.022 120.483C470.266 126.35 525.681 165.483 573.868 208.828C622.054 252.173 669.632 302.146 729.866 321.108C791.902 340.679 855 317.798 905.442 279.565C914.173 272.944 922.91 265.723 931.341 257.747C971.997 219.814 1005.28 172.405 1050.15 149.231C1094.42 126.504 1148.18 126.35 1191.39 158.408C1216.99 177.371 1236.72 204.617 1257.95 227.791C1268.64 239.531 1280.08 250.518 1293.04 259.548C1305.68 268.433 1319.99 274.6 1335.35 277.009C1366.67 282.129 1403.11 268.579 1412.15 237.429" stroke="url(#paint42_linear_202_811)" stroke-opacity="0.2" stroke-width="1.07054" stroke-miterlimit="10"/>
</g>
<mask id="mask43_202_811" style="mask-type:luminance" maskUnits="userSpaceOnUse" x="0" y="91" width="1432" height="251">
<path d="M0 91.8965H1431.86V341.272H0V91.8965Z" fill="white"/>
<path d="M0.666667 92.5632H1431.2V340.605H0.666667V92.5632Z" stroke="white" stroke-width="1.33333"/>
</mask>
<g mask="url(#mask43_202_811)">
<path d="M12.502 212.739C53.6055 231.555 103.146 225.688 147.568 208.682C191.242 191.975 231.899 165.63 274.357 144.712C317.277 123.64 364.108 109.797 410.185 114.91C472.221 121.684 526.127 160.664 573.259 203.562C620.39 246.46 667.675 295.371 727.001 312.978C789.191 331.348 851.381 305.911 901.076 266.477C909.66 259.702 918.244 252.327 926.52 244.197C966.73 205.818 1000.6 158.708 1046.23 137.19C1091.11 115.818 1144.42 118.374 1187.17 150.886C1212.63 170.303 1232.65 197.541 1254.34 220.569C1265.33 232.156 1277.07 243.142 1290.17 251.872C1303.12 260.456 1317.58 266.477 1333.09 268.579C1364.71 273.098 1401 259.101 1410.04 227.644" stroke="url(#paint43_linear_202_811)" stroke-opacity="0.2" stroke-width="1.07054" stroke-miterlimit="10"/>
</g>
<mask id="mask44_202_811" style="mask-type:luminance" maskUnits="userSpaceOnUse" x="0" y="86" width="1430" height="246">
<path d="M0 86.2715H1429.99V331.896H0V86.2715Z" fill="white"/>
<path d="M0.666667 86.9382H1429.32V331.23H0.666667V86.9382Z" stroke="white" stroke-width="1.33333"/>
</mask>
<g mask="url(#mask44_202_811)">
<path d="M12.9492 203.107C53.9136 222.978 103.901 217.858 148.777 201.152C192.898 184.746 233.855 158.408 276.768 137.79C320.134 116.865 367.266 103.322 413.65 109.042C474.477 116.564 526.882 155.551 572.959 197.995C619.035 240.439 665.867 288.295 724.446 304.555C786.936 321.708 848.071 293.569 897.011 253.08C905.442 246.152 913.872 238.63 922.155 230.5C961.911 191.674 996.394 145.012 1042.77 124.848C1088.25 104.977 1141.1 109.943 1183.41 142.902C1208.86 162.619 1229.19 190.019 1251.33 212.892C1262.62 224.479 1274.52 235.165 1287.91 243.896C1301.02 252.326 1315.93 257.892 1331.59 259.848C1363.66 263.766 1399.8 249.316 1408.68 217.558" stroke="url(#paint44_linear_202_811)" stroke-opacity="0.2" stroke-width="1.07054" stroke-miterlimit="10"/>
</g>
<mask id="mask45_202_811" style="mask-type:luminance" maskUnits="userSpaceOnUse" x="0" y="78" width="1429" height="245">
<path d="M0 78.772H1428.11V322.522H0V78.772Z" fill="white"/>
<path d="M0.666667 79.4386H1427.45V321.855H0.666667V79.4386Z" stroke="white" stroke-width="1.33333"/>
</mask>
<g mask="url(#mask45_202_811)">
<path d="M13.4033 193.631C54.0601 214.702 104.656 210.183 149.978 193.777C194.553 177.671 235.664 151.333 279.031 130.869C322.698 110.098 370.276 96.8483 416.807 103.323C476.44 111.753 527.183 150.733 572.358 192.422C617.534 234.265 663.911 281.228 721.736 295.972C784.526 311.931 844.761 281.228 892.639 239.685C900.923 232.61 909.206 224.78 917.336 216.658C956.638 177.371 991.721 131.17 1038.71 112.5C1084.94 94.1384 1137.19 101.668 1179.05 135.081C1204.34 155.252 1224.98 182.644 1247.56 205.371C1259 216.804 1271.2 227.49 1285.06 235.921C1298.46 244.197 1313.52 249.47 1329.32 251.126C1361.7 254.436 1397.69 239.531 1406.57 207.473" stroke="url(#paint45_linear_202_811)" stroke-opacity="0.2" stroke-width="1.07054" stroke-miterlimit="10"/>
</g>
<mask id="mask46_202_811" style="mask-type:luminance" maskUnits="userSpaceOnUse" x="0" y="71" width="1427" height="245">
<path d="M0 71.272H1426.24V315.022H0V71.272Z" fill="white"/>
<path d="M0.666667 71.9386H1425.57V314.355H0.666667V71.9386Z" stroke="white" stroke-width="1.33333"/>
</mask>
<g mask="url(#mask46_202_811)">
<path d="M13.8574 185.501C54.3603 207.627 105.557 203.863 151.033 187.91C196.055 172.105 237.466 145.913 281.133 125.449C325.107 104.824 373.14 91.7361 419.817 99.1116C478.242 108.289 527.483 147.268 571.758 188.511C615.879 229.754 661.802 275.808 718.872 289.204C781.963 303.948 841.142 270.542 888.274 227.945C896.404 220.569 904.541 212.739 912.671 204.617C951.518 164.729 987.209 119.129 1034.94 101.968C1081.77 85.1077 1133.42 95.1931 1174.83 129.06C1200.12 149.678 1221.06 177.071 1244.1 199.651C1255.84 211.084 1268.34 221.624 1282.35 229.9C1296.05 237.876 1311.41 242.996 1327.37 244.351C1360.19 247.061 1395.88 231.709 1404.76 199.497" stroke="url(#paint46_linear_202_811)" stroke-opacity="0.2" stroke-width="1.07054" stroke-miterlimit="10"/>
</g>
<mask id="mask47_202_811" style="mask-type:luminance" maskUnits="userSpaceOnUse" x="0" y="63" width="1425" height="245">
<path d="M0 63.7715H1424.36V307.521H0V63.7715Z" fill="white"/>
<path d="M0.666667 64.4382H1423.7V306.855H0.666667V64.4382Z" stroke="white" stroke-width="1.33333"/>
</mask>
<g mask="url(#mask47_202_811)">
<path d="M14.3047 178.125C54.5146 201.452 106.312 198.442 152.242 182.644C197.564 167.138 239.429 140.947 283.396 120.63C327.664 100.158 376.15 87.3703 423.135 95.4928C480.352 105.432 528.091 144.411 571.304 185.2C614.524 225.988 659.993 270.988 716.316 283.029C779.707 296.579 837.832 260.603 884.209 216.958C892.193 209.428 900.169 201.452 908.152 193.176C946.553 152.841 982.837 107.688 1031.33 91.882C1078.76 76.3839 1129.96 89.172 1170.92 123.339C1196.21 144.411 1217.29 171.804 1240.78 194.231C1252.68 205.671 1265.48 215.903 1279.78 224.033C1293.64 231.855 1309.3 236.674 1325.41 237.729C1358.54 239.831 1394.22 224.033 1402.96 191.521" stroke="url(#paint47_linear_202_811)" stroke-opacity="0.2" stroke-width="1.07054" stroke-miterlimit="10"/>
</g>
<mask id="mask48_202_811" style="mask-type:luminance" maskUnits="userSpaceOnUse" x="0" y="54" width="1423" height="248">
<path d="M0 54.397H1422.49V301.897H0V54.397Z" fill="white"/>
<path d="M0.666667 55.0636H1421.82V301.23H0.666667V55.0636Z" stroke="white" stroke-width="1.33333"/>
</mask>
<g mask="url(#mask48_202_811)">
<path d="M14.7578 170.75C54.6601 195.286 107.065 192.876 153.442 177.371C199.218 162.173 241.384 135.982 285.651 115.818C330.226 95.4935 379.313 82.8519 426.298 91.8827C482.314 102.569 528.537 141.702 570.702 181.89C612.861 222.078 657.89 266.023 713.451 276.863C776.996 289.204 834.367 250.518 879.689 205.818C887.519 198.142 895.356 190.013 903.185 181.59C941.132 140.801 978.024 96.1014 1027.11 81.7972C1075.14 67.8006 1125.89 83.1522 1166.4 117.774C1191.55 139.292 1212.93 166.685 1236.87 188.965C1249.06 200.252 1262.01 210.484 1276.63 218.313C1290.78 225.989 1306.74 230.501 1323 231.255C1356.58 232.764 1391.97 216.504 1400.7 183.692" stroke="url(#paint48_linear_202_811)" stroke-opacity="0.2" stroke-width="1.07054" stroke-miterlimit="10"/>
</g>
<mask id="mask49_202_811" style="mask-type:luminance" maskUnits="userSpaceOnUse" x="0" y="45" width="1421" height="250">
<path d="M0 45.022H1420.61V294.397H0V45.022Z" fill="white"/>
<path d="M0.666667 45.6886H1419.95V293.73H0.666667V45.6886Z" stroke="white" stroke-width="1.33333"/>
</mask>
<g mask="url(#mask49_202_811)">
<path d="M15.2129 163.528C54.9614 189.111 107.967 187.456 154.498 172.258C200.728 157.353 243.186 131.169 287.762 111.152C332.637 90.9813 382.178 78.4862 429.309 88.4252C484.117 99.8583 528.838 138.992 569.949 178.579C611.06 218.159 655.782 261.203 710.589 270.688C774.434 281.675 830.757 240.586 875.325 194.831C883.008 187.009 890.684 178.725 898.513 170.303C936.013 129.06 973.506 84.6605 1023.35 71.8651C1071.99 59.3773 1122.28 77.2851 1162.33 112.353C1187.48 134.326 1209.16 161.719 1233.56 183.845C1246.05 195.132 1259.3 205.217 1274.06 212.893C1288.37 220.422 1304.63 224.634 1321.05 224.934C1354.92 225.835 1390.31 209.128 1398.9 176.015" stroke="url(#paint49_linear_202_811)" stroke-opacity="0.2" stroke-width="1.07054" stroke-miterlimit="10"/>
</g>
<mask id="mask50_202_811" style="mask-type:luminance" maskUnits="userSpaceOnUse" x="0" y="37" width="1419" height="252">
<path d="M0 37.522H1418.74V288.772H0V37.522Z" fill="white"/>
<path d="M0.666667 38.1886H1418.07V288.105H0.666667V38.1886Z" stroke="white" stroke-width="1.33333"/>
</mask>
<g mask="url(#mask50_202_811)">
<path d="M15.6592 156.299C55.1147 183.091 108.721 182.036 155.706 167.292C202.383 152.688 244.995 126.504 290.017 106.633C335.193 86.6161 385.188 74.2748 432.62 85.1073C486.226 97.3022 529.292 136.435 569.495 175.569C609.705 214.702 653.972 256.538 707.878 264.668C772.031 274.453 827.439 230.801 871.113 183.845C878.635 175.869 886.164 167.439 893.847 158.862C931.04 117.173 969.141 73.3739 1019.58 61.9335C1068.82 50.7934 1118.51 71.411 1158.11 106.787C1183.11 129.206 1205.1 156.606 1229.94 178.579C1242.59 189.712 1256.14 199.651 1271.2 207.173C1285.81 214.402 1302.22 218.313 1318.94 218.459C1353.27 218.613 1388.36 201.606 1396.93 168.34" stroke="url(#paint50_linear_202_811)" stroke-opacity="0.2" stroke-width="1.07054" stroke-miterlimit="10"/>
</g>
<mask id="mask51_202_811" style="mask-type:luminance" maskUnits="userSpaceOnUse" x="0" y="28" width="1417" height="254">
<path d="M0 28.147H1416.86V281.272H0V28.147Z" fill="white"/>
<path d="M0.666667 28.8136H1416.2V280.605H0.666667V28.8136Z" stroke="white" stroke-width="1.33333"/>
</mask>
<g mask="url(#mask51_202_811)">
<path d="M16.1133 149.077C55.2685 177.071 109.475 176.624 156.907 162.173C203.892 147.876 246.951 121.839 292.28 101.968C337.756 82.0974 388.352 69.9099 435.784 81.6506C488.181 94.5925 529.746 133.88 568.894 172.405C608.049 210.938 651.863 251.726 705.168 258.648C769.621 267.078 824.128 221.023 866.74 173.006C874.123 164.883 881.499 156.299 889.028 147.722C925.774 105.579 964.321 62.0803 1015.52 52.3025C1065.36 42.5173 1114.6 65.6985 1153.75 101.668C1178.74 124.541 1201.03 151.934 1226.33 173.76C1239.28 184.9 1252.98 194.685 1268.34 202.053C1283.25 209.129 1299.96 212.739 1316.67 212.593C1351.31 212.139 1386.25 194.685 1394.83 161.118" stroke="url(#paint51_linear_202_811)" stroke-opacity="0.2" stroke-width="1.07054" stroke-miterlimit="10"/>
</g>
<mask id="mask52_202_811" style="mask-type:luminance" maskUnits="userSpaceOnUse" x="0" y="18" width="1415" height="258">
<path d="M0 18.7715H1414.99V275.646H0V18.7715Z" fill="white"/>
<path d="M0.666667 19.4382H1414.32V274.98H0.666667V19.4382Z" stroke="white" stroke-width="1.33333"/>
</mask>
<g mask="url(#mask52_202_811)">
<path d="M16.5674 142.001C55.5688 171.049 110.376 171.35 157.961 157.206C205.393 143.21 248.76 117.172 294.39 97.4555C340.166 77.7387 391.208 65.6977 438.948 78.1855C490.144 91.7353 530.193 131.169 568.293 169.094C606.387 207.026 649.907 246.76 702.312 252.48C767.058 259.548 820.517 210.937 862.375 161.872C869.604 153.596 876.833 144.865 884.363 136.135C920.654 93.537 959.948 50.4926 1011.75 42.0624C1062.19 33.7861 1110.98 59.5234 1149.68 95.7929C1174.53 119.128 1197.11 146.52 1222.87 168.193C1235.97 179.326 1250.12 188.964 1265.78 196.032C1280.84 202.961 1297.85 206.271 1314.87 205.817C1349.96 204.763 1384.74 186.855 1393.17 152.988" stroke="url(#paint52_linear_202_811)" stroke-opacity="0.2" stroke-width="1.07054" stroke-miterlimit="10"/>
</g>
<mask id="mask53_202_811" style="mask-type:luminance" maskUnits="userSpaceOnUse" x="0" y="9" width="1414" height="262">
<path d="M0 9.39697H1413.11V270.022H0V9.39697Z" fill="white"/>
<path d="M0.666667 10.0636H1412.45V269.355H0.666667V10.0636Z" stroke="white" stroke-width="1.33333"/>
</mask>
<g mask="url(#mask53_202_811)">
<path d="M17.0215 134.926C55.7153 165.183 111.13 166.084 159.163 152.241C207.048 138.544 250.715 112.5 296.645 93.0904C342.722 73.52 394.372 61.479 442.104 75.0288C492.246 89.3257 530.647 128.759 567.693 166.237C604.731 203.715 647.798 242.241 699.448 246.76C764.502 252.326 816.899 201.452 858.01 151.186C864.939 142.602 872.16 133.879 879.543 124.995C915.381 81.9502 955.283 39.2061 1007.83 32.4312C1058.88 25.6563 1107.07 53.9571 1145.46 90.6807C1170.31 114.462 1193.05 141.855 1219.4 163.374C1232.8 174.36 1247.11 183.999 1263.07 190.92C1278.43 197.695 1295.75 200.705 1312.76 199.951C1348.15 198.442 1382.78 179.934 1391.21 145.766" stroke="url(#paint53_linear_202_811)" stroke-opacity="0.2" stroke-width="1.07054" stroke-miterlimit="10"/>
</g>
<mask id="mask54_202_811" style="mask-type:luminance" maskUnits="userSpaceOnUse" x="0" y="0" width="1412" height="265">
<path d="M0 0.0219727H1411.24V264.397H0V0.0219727Z" fill="white"/>
<path d="M0.666667 0.688639H1410.57V263.73H0.666667V0.688639Z" stroke="white" stroke-width="1.33333"/>
</mask>
<g mask="url(#mask54_202_811)">
<path d="M17.4688 127.858C56.0161 159.309 111.885 160.817 160.372 147.421C208.704 134.025 252.679 107.988 299.056 88.7252C345.433 69.3087 397.537 57.2677 445.423 71.8648C494.356 86.7696 531.248 126.504 567.239 163.374C603.23 200.251 645.989 237.729 696.885 241.04C762.093 245.251 813.736 191.821 853.946 140.647C860.721 131.916 867.796 123.039 875.025 114.162C910.408 70.6637 950.918 28.3663 1004.07 23.1002C1055.72 17.8341 1103.45 48.6837 1141.25 85.8614C1165.95 110.097 1189.14 137.49 1215.79 158.862C1229.34 169.848 1243.95 179.179 1260.21 185.954C1275.72 192.421 1293.34 195.285 1310.65 194.231C1346.49 192.121 1380.83 173.159 1389.26 138.845" stroke="url(#paint54_linear_202_811)" stroke-opacity="0.2" stroke-width="1.07054" stroke-miterlimit="10"/>
</g>
<mask id="mask55_202_811" style="mask-type:luminance" maskUnits="userSpaceOnUse" x="0" y="0" width="1410" height="257">
<path d="M0 0H1409.36V256.897H0V0Z" fill="white"/>
<path d="M0.666667 0.666667H1408.7V256.23H0.666667V0.666667Z" stroke="white" stroke-width="1.33333"/>
</mask>
<g mask="url(#mask55_202_811)">
<path d="M17.9219 120.784C56.1689 153.288 112.785 155.552 161.572 142.456C210.366 129.36 254.479 103.323 301.31 84.2064C348.141 64.9437 400.693 53.0492 448.732 68.5546C496.618 84.0599 531.701 123.94 566.938 160.217C602.021 196.64 644.186 232.91 694.328 234.866C759.828 237.576 810.424 181.736 849.726 129.514C856.354 120.63 863.276 111.599 870.505 102.568C905.595 58.6229 946.552 16.7797 1000.46 12.8685C1052.86 8.95009 1099.84 42.6708 1137.33 79.995C1161.88 104.678 1185.37 132.07 1212.47 153.288C1226.33 164.128 1241.23 173.459 1257.65 180.08C1273.46 186.401 1291.38 188.811 1308.7 187.61C1344.84 184.9 1379.16 165.483 1387.45 130.869" stroke="url(#paint55_linear_202_811)" stroke-opacity="0.2" stroke-width="1.07054" stroke-miterlimit="10"/>
</g>
<mask id="mask56_202_811" style="mask-type:luminance" maskUnits="userSpaceOnUse" x="0" y="0" width="1408" height="252">
<path d="M0 0H1407.49V251.272H0V0Z" fill="white"/>
<path d="M0.666667 0.666667H1406.82V250.605H0.666667V0.666667Z" stroke="white" stroke-width="1.33333"/>
</mask>
<g mask="url(#mask56_202_811)">
<path d="M18.377 113.709C56.3164 147.422 113.54 150.432 162.627 137.637C211.722 124.849 256.289 98.9578 303.421 79.8416C350.552 60.7254 403.711 48.8382 451.744 65.3909C498.421 81.4969 532.002 121.531 566.184 157.354C600.367 193.177 641.924 228.245 691.465 229.146C757.273 230.354 806.814 172.259 845.362 118.975C883.909 65.6985 930.74 6.39434 996.541 3.38409C1049.4 1.12823 1095.92 37.2513 1132.97 75.1761C1170.01 113.108 1205.24 156.299 1254.79 175.269C1304.33 194.231 1373.14 175.415 1385.34 123.941" stroke="url(#paint56_linear_202_811)" stroke-opacity="0.2" stroke-width="1.07054" stroke-miterlimit="10"/>
</g>
<defs>
<linearGradient id="paint0_linear_202_811" x1="709.087" y1="47.1865" x2="709.087" y2="497.901" gradientUnits="userSpaceOnUse">
<stop stop-color="#036B82"/>
<stop offset="1" stop-color="#540791"/>
</linearGradient>
<linearGradient id="paint1_linear_202_811" x1="709.688" y1="59.3823" x2="709.688" y2="489.991" gradientUnits="userSpaceOnUse">
<stop stop-color="#036B82"/>
<stop offset="1" stop-color="#540791"/>
</linearGradient>
<linearGradient id="paint2_linear_202_811" x1="709.914" y1="71.5532" x2="709.914" y2="482.075" gradientUnits="userSpaceOnUse">
<stop stop-color="#036B82"/>
<stop offset="1" stop-color="#540791"/>
</linearGradient>
<linearGradient id="paint3_linear_202_811" x1="710.438" y1="83.3623" x2="710.438" y2="474.068" gradientUnits="userSpaceOnUse">
<stop stop-color="#036B82"/>
<stop offset="1" stop-color="#540791"/>
</linearGradient>
<linearGradient id="paint4_linear_202_811" x1="710.893" y1="95.562" x2="710.893" y2="466.395" gradientUnits="userSpaceOnUse">
<stop stop-color="#036B82"/>
<stop offset="1" stop-color="#540791"/>
</linearGradient>
<linearGradient id="paint5_linear_202_811" x1="711.496" y1="107.568" x2="711.496" y2="458.726" gradientUnits="userSpaceOnUse">
<stop stop-color="#036B82"/>
<stop offset="1" stop-color="#540791"/>
</linearGradient>
<linearGradient id="paint6_linear_202_811" x1="711.87" y1="119.482" x2="711.87" y2="450.997" gradientUnits="userSpaceOnUse">
<stop stop-color="#036B82"/>
<stop offset="1" stop-color="#540791"/>
</linearGradient>
<linearGradient id="paint7_linear_202_811" x1="712.398" y1="131.305" x2="712.398" y2="443.415" gradientUnits="userSpaceOnUse">
<stop stop-color="#036B82"/>
<stop offset="1" stop-color="#540791"/>
</linearGradient>
<linearGradient id="paint8_linear_202_811" x1="712.774" y1="143.131" x2="712.774" y2="435.903" gradientUnits="userSpaceOnUse">
<stop stop-color="#036B82"/>
<stop offset="1" stop-color="#540791"/>
</linearGradient>
<linearGradient id="paint9_linear_202_811" x1="713.375" y1="154.644" x2="713.375" y2="428.444" gradientUnits="userSpaceOnUse">
<stop stop-color="#036B82"/>
<stop offset="1" stop-color="#540791"/>
</linearGradient>
<linearGradient id="paint10_linear_202_811" x1="713.752" y1="166.179" x2="713.752" y2="421.114" gradientUnits="userSpaceOnUse">
<stop stop-color="#036B82"/>
<stop offset="1" stop-color="#540791"/>
</linearGradient>
<linearGradient id="paint11_linear_202_811" x1="714.28" y1="177.638" x2="714.28" y2="414.038" gradientUnits="userSpaceOnUse">
<stop stop-color="#036B82"/>
<stop offset="1" stop-color="#540791"/>
</linearGradient>
<linearGradient id="paint12_linear_202_811" x1="714.73" y1="188.752" x2="714.73" y2="407.004" gradientUnits="userSpaceOnUse">
<stop stop-color="#036B82"/>
<stop offset="1" stop-color="#540791"/>
</linearGradient>
<linearGradient id="paint13_linear_202_811" x1="715.185" y1="199.722" x2="715.185" y2="400.394" gradientUnits="userSpaceOnUse">
<stop stop-color="#036B82"/>
<stop offset="1" stop-color="#540791"/>
</linearGradient>
<linearGradient id="paint14_linear_202_811" x1="715.862" y1="210.166" x2="715.862" y2="394.154" gradientUnits="userSpaceOnUse">
<stop stop-color="#036B82"/>
<stop offset="1" stop-color="#540791"/>
</linearGradient>
<linearGradient id="paint15_linear_202_811" x1="716.316" y1="220.066" x2="716.316" y2="388.467" gradientUnits="userSpaceOnUse">
<stop stop-color="#036B82"/>
<stop offset="1" stop-color="#540791"/>
</linearGradient>
<linearGradient id="paint16_linear_202_811" x1="716.689" y1="229.253" x2="716.689" y2="383.441" gradientUnits="userSpaceOnUse">
<stop stop-color="#036B82"/>
<stop offset="1" stop-color="#540791"/>
</linearGradient>
<linearGradient id="paint17_linear_202_811" x1="717.143" y1="237.376" x2="717.143" y2="380.048" gradientUnits="userSpaceOnUse">
<stop stop-color="#036B82"/>
<stop offset="1" stop-color="#540791"/>
</linearGradient>
<linearGradient id="paint18_linear_202_811" x1="717.821" y1="240.582" x2="717.821" y2="380.566" gradientUnits="userSpaceOnUse">
<stop stop-color="#036B82"/>
<stop offset="1" stop-color="#540791"/>
</linearGradient>
<linearGradient id="paint19_linear_202_811" x1="718.194" y1="241.245" x2="718.194" y2="384.02" gradientUnits="userSpaceOnUse">
<stop stop-color="#036B82"/>
<stop offset="1" stop-color="#540791"/>
</linearGradient>
<linearGradient id="paint20_linear_202_811" x1="718.572" y1="241.63" x2="718.572" y2="388.226" gradientUnits="userSpaceOnUse">
<stop stop-color="#036B82"/>
<stop offset="1" stop-color="#540791"/>
</linearGradient>
<linearGradient id="paint21_linear_202_811" x1="719.026" y1="241.203" x2="719.026" y2="392.764" gradientUnits="userSpaceOnUse">
<stop stop-color="#036B82"/>
<stop offset="1" stop-color="#540791"/>
</linearGradient>
<linearGradient id="paint22_linear_202_811" x1="719.703" y1="240.207" x2="719.703" y2="397.929" gradientUnits="userSpaceOnUse">
<stop stop-color="#036B82"/>
<stop offset="1" stop-color="#540791"/>
</linearGradient>
<linearGradient id="paint23_linear_202_811" x1="720.077" y1="232.541" x2="720.077" y2="409.883" gradientUnits="userSpaceOnUse">
<stop stop-color="#036B82"/>
<stop offset="1" stop-color="#540791"/>
</linearGradient>
<linearGradient id="paint24_linear_202_811" x1="720.454" y1="224.946" x2="720.454" y2="421.991" gradientUnits="userSpaceOnUse">
<stop stop-color="#036B82"/>
<stop offset="1" stop-color="#540791"/>
</linearGradient>
<linearGradient id="paint25_linear_202_811" x1="720.981" y1="217.12" x2="720.981" y2="433.775" gradientUnits="userSpaceOnUse">
<stop stop-color="#036B82"/>
<stop offset="1" stop-color="#540791"/>
</linearGradient>
<linearGradient id="paint26_linear_202_811" x1="721.659" y1="209.173" x2="721.659" y2="445.754" gradientUnits="userSpaceOnUse">
<stop stop-color="#036B82"/>
<stop offset="1" stop-color="#540791"/>
</linearGradient>
<linearGradient id="paint27_linear_202_811" x1="722.035" y1="201.339" x2="722.035" y2="458.046" gradientUnits="userSpaceOnUse">
<stop stop-color="#036B82"/>
<stop offset="1" stop-color="#540791"/>
</linearGradient>
<linearGradient id="paint28_linear_202_811" x1="722.49" y1="193.353" x2="722.49" y2="470.325" gradientUnits="userSpaceOnUse">
<stop stop-color="#036B82"/>
<stop offset="1" stop-color="#540791"/>
</linearGradient>
<linearGradient id="paint29_linear_202_811" x1="721.808" y1="188.808" x2="721.808" y2="459.448" gradientUnits="userSpaceOnUse">
<stop stop-color="#036B82"/>
<stop offset="1" stop-color="#540791"/>
</linearGradient>
<linearGradient id="paint30_linear_202_811" x1="720.904" y1="184.084" x2="720.904" y2="448.564" gradientUnits="userSpaceOnUse">
<stop stop-color="#036B82"/>
<stop offset="1" stop-color="#540791"/>
</linearGradient>
<linearGradient id="paint31_linear_202_811" x1="720.231" y1="179.48" x2="720.231" y2="438.216" gradientUnits="userSpaceOnUse">
<stop stop-color="#036B82"/>
<stop offset="1" stop-color="#540791"/>
</linearGradient>
<linearGradient id="paint32_linear_202_811" x1="719.472" y1="174.518" x2="719.472" y2="427.5" gradientUnits="userSpaceOnUse">
<stop stop-color="#036B82"/>
<stop offset="1" stop-color="#540791"/>
</linearGradient>
<linearGradient id="paint33_linear_202_811" x1="718.799" y1="169.538" x2="718.799" y2="417.21" gradientUnits="userSpaceOnUse">
<stop stop-color="#036B82"/>
<stop offset="1" stop-color="#540791"/>
</linearGradient>
<linearGradient id="paint34_linear_202_811" x1="718.121" y1="164.514" x2="718.121" y2="407.026" gradientUnits="userSpaceOnUse">
<stop stop-color="#036B82"/>
<stop offset="1" stop-color="#540791"/>
</linearGradient>
<linearGradient id="paint35_linear_202_811" x1="717.367" y1="159.008" x2="717.367" y2="396.59" gradientUnits="userSpaceOnUse">
<stop stop-color="#036B82"/>
<stop offset="1" stop-color="#540791"/>
</linearGradient>
<linearGradient id="paint36_linear_202_811" x1="716.539" y1="153.687" x2="716.539" y2="386.512" gradientUnits="userSpaceOnUse">
<stop stop-color="#036B82"/>
<stop offset="1" stop-color="#540791"/>
</linearGradient>
<linearGradient id="paint37_linear_202_811" x1="715.861" y1="148.49" x2="715.861" y2="376.798" gradientUnits="userSpaceOnUse">
<stop stop-color="#036B82"/>
<stop offset="1" stop-color="#540791"/>
</linearGradient>
<linearGradient id="paint38_linear_202_811" x1="715.107" y1="142.973" x2="715.107" y2="366.931" gradientUnits="userSpaceOnUse">
<stop stop-color="#036B82"/>
<stop offset="1" stop-color="#540791"/>
</linearGradient>
<linearGradient id="paint39_linear_202_811" x1="714.356" y1="137.293" x2="714.356" y2="357.105" gradientUnits="userSpaceOnUse">
<stop stop-color="#036B82"/>
<stop offset="1" stop-color="#540791"/>
</linearGradient>
<linearGradient id="paint40_linear_202_811" x1="713.679" y1="131.562" x2="713.679" y2="347.408" gradientUnits="userSpaceOnUse">
<stop stop-color="#036B82"/>
<stop offset="1" stop-color="#540791"/>
</linearGradient>
<linearGradient id="paint41_linear_202_811" x1="712.847" y1="125.643" x2="712.847" y2="337.814" gradientUnits="userSpaceOnUse">
<stop stop-color="#036B82"/>
<stop offset="1" stop-color="#540791"/>
</linearGradient>
<linearGradient id="paint42_linear_202_811" x1="712.097" y1="119.691" x2="712.097" y2="328.25" gradientUnits="userSpaceOnUse">
<stop stop-color="#036B82"/>
<stop offset="1" stop-color="#540791"/>
</linearGradient>
<linearGradient id="paint43_linear_202_811" x1="711.269" y1="113.845" x2="711.269" y2="319.065" gradientUnits="userSpaceOnUse">
<stop stop-color="#036B82"/>
<stop offset="1" stop-color="#540791"/>
</linearGradient>
<linearGradient id="paint44_linear_202_811" x1="710.815" y1="107.727" x2="710.815" y2="309.678" gradientUnits="userSpaceOnUse">
<stop stop-color="#036B82"/>
<stop offset="1" stop-color="#540791"/>
</linearGradient>
<linearGradient id="paint45_linear_202_811" x1="709.988" y1="101.67" x2="709.988" y2="300.265" gradientUnits="userSpaceOnUse">
<stop stop-color="#036B82"/>
<stop offset="1" stop-color="#540791"/>
</linearGradient>
<linearGradient id="paint46_linear_202_811" x1="709.31" y1="93.9561" x2="709.31" y2="292.745" gradientUnits="userSpaceOnUse">
<stop stop-color="#036B82"/>
<stop offset="1" stop-color="#540791"/>
</linearGradient>
<linearGradient id="paint47_linear_202_811" x1="708.633" y1="85.3638" x2="708.633" y2="285.927" gradientUnits="userSpaceOnUse">
<stop stop-color="#036B82"/>
<stop offset="1" stop-color="#540791"/>
</linearGradient>
<linearGradient id="paint48_linear_202_811" x1="707.728" y1="76.645" x2="707.728" y2="279.188" gradientUnits="userSpaceOnUse">
<stop stop-color="#036B82"/>
<stop offset="1" stop-color="#540791"/>
</linearGradient>
<linearGradient id="paint49_linear_202_811" x1="707.055" y1="67.894" x2="707.055" y2="272.487" gradientUnits="userSpaceOnUse">
<stop stop-color="#036B82"/>
<stop offset="1" stop-color="#540791"/>
</linearGradient>
<linearGradient id="paint50_linear_202_811" x1="706.296" y1="58.9038" x2="706.296" y2="266.053" gradientUnits="userSpaceOnUse">
<stop stop-color="#036B82"/>
<stop offset="1" stop-color="#540791"/>
</linearGradient>
<linearGradient id="paint51_linear_202_811" x1="705.472" y1="50.0532" x2="705.472" y2="259.652" gradientUnits="userSpaceOnUse">
<stop stop-color="#036B82"/>
<stop offset="1" stop-color="#540791"/>
</linearGradient>
<linearGradient id="paint52_linear_202_811" x1="704.868" y1="40.5068" x2="704.868" y2="253.168" gradientUnits="userSpaceOnUse">
<stop stop-color="#036B82"/>
<stop offset="1" stop-color="#540791"/>
</linearGradient>
<linearGradient id="paint53_linear_202_811" x1="704.117" y1="31.4243" x2="704.117" y2="247.179" gradientUnits="userSpaceOnUse">
<stop stop-color="#036B82"/>
<stop offset="1" stop-color="#540791"/>
</linearGradient>
<linearGradient id="paint54_linear_202_811" x1="703.363" y1="22.5122" x2="703.363" y2="241.273" gradientUnits="userSpaceOnUse">
<stop stop-color="#036B82"/>
<stop offset="1" stop-color="#540791"/>
</linearGradient>
<linearGradient id="paint55_linear_202_811" x1="702.685" y1="12.5576" x2="702.685" y2="234.96" gradientUnits="userSpaceOnUse">
<stop stop-color="#036B82"/>
<stop offset="1" stop-color="#540791"/>
</linearGradient>
<linearGradient id="paint56_linear_202_811" x1="701.858" y1="3.28369" x2="701.858" y2="229.164" gradientUnits="userSpaceOnUse">
<stop stop-color="#036B82"/>
<stop offset="1" stop-color="#540791"/>
</linearGradient>
</defs>
</svg>
