<svg xmlns="http://www.w3.org/2000/svg" width="984" height="525" fill="none"  xmlns:v="https://vecta.io/nano"><path d="M-6.5 1v9.206c0 110.457 89.543 200 200 200h687c44.183 0 80 35.817 80 80V524" stroke="url(#A)" stroke-width="2" stroke-linecap="round" stroke-dasharray="4 4"/><path fill-rule="evenodd" d="M950.035 376.414c5.412 3.124 14.185 3.124 19.597 0 2.767-1.597 4.12-3.702 4.057-5.795h.002v-3.576h-1.58c-.635-.7-1.46-1.355-2.48-1.942-5.412-3.125-14.185-3.125-19.597 0-1.018.587-1.844 1.243-2.48 1.942h-1.58l.001 3.576c-.062 2.093 1.3 4.198 4.057 5.795z" fill="#00f0ff"/><circle r="11.314" transform="matrix(.866044 .499967 -.866044 .499967 959.833 367.082)" fill="url(#B)"/><defs><linearGradient id="A" x1="258.5" y1="534" x2="258.5" y2="-21" gradientUnits="userSpaceOnUse"><stop stop-color="#01d1ff" stop-opacity="0"/><stop offset=".396" stop-color="#01d1ff"/><stop offset=".74" stop-color="#660dac" stop-opacity=".14"/></linearGradient><linearGradient id="B" x1="11.314" y1="0" x2="11.314" y2="22.628" gradientUnits="userSpaceOnUse"><stop stop-color="#1e1d58"/><stop offset="1" stop-color="#040d2f"/></linearGradient></defs></svg>