<svg width="1440" height="365" viewBox="0 0 1440 365" fill="none" xmlns="http://www.w3.org/2000/svg">
<g clip-path="url(#clip0_271_2037)">
<g opacity="0.5">
<path d="M1104.33 0.671631L979.095 93.2834L816.645 78.7636L496.102 210.2L324.554 83.3415L179.624 190.516L0.489027 58.0426L0.0405273 58.6384L179.631 191.442L324.561 84.2686L496.004 211.056L816.773 79.5206L979.313 94.0494L1104.34 1.60024L1297.74 144.62L1439.36 39.8953L1438.91 39.2994L1297.73 143.692L1104.33 0.671631Z" fill="url(#paint0_linear_271_2037)"/>
<path d="M1101.73 7.86597L976.905 100.375L811.2 83.1504L494.67 211.805L319.845 87.9771L178.109 193.72L0.478525 64.9619L0.0510254 65.5427L178.116 194.616L319.859 88.863L494.575 212.629L811.313 83.8901L977.115 101.126L1101.73 8.7616L1294.34 150.038L1439.34 45.5292L1438.91 44.9468L1294.35 149.146L1101.73 7.86597Z" fill="url(#paint1_linear_271_2037)"/>
<path d="M1099.13 15.0596L1290.98 154.601L1438.95 50.595L1439.36 51.1623L1290.98 155.461L1099.13 15.9267L974.925 108.189L805.86 88.2462L493.145 214.196L315.152 93.4716L176.599 197.787L0.0600586 72.447L0.468809 71.8811L176.588 196.923L315.13 92.6142L493.23 213.41L805.755 87.5342L974.73 107.465L1099.13 15.0596Z" fill="url(#paint2_linear_271_2037)"/>
<path d="M1096.5 22.2524L972.525 114.555L800.287 91.9195L491.775 215.015L310.399 97.2483L175.065 200.127L0.45897 78.8012L0.0689697 79.3513L175.081 200.96L310.444 98.0735L491.715 215.77L800.392 92.609L972.72 115.258L1096.52 23.0881L1287.56 160.878L1439.32 56.7948L1438.95 56.2424L1287.6 160.054L1096.5 22.2524Z" fill="url(#paint3_linear_271_2037)"/>
<path d="M1093.91 29.4473L1284.18 165.509L1438.95 61.8896L1439.32 62.427L1284.19 166.298L1093.93 30.2515L970.552 122.328L794.955 96.9731L490.308 217.346L305.763 102.676L173.565 204.132L0.0794678 86.2554L0.449218 85.7203L173.542 203.33L305.7 101.885L490.351 216.621L794.858 96.306L970.358 121.648L1093.91 29.4458L1093.91 29.4473Z" fill="url(#paint4_linear_271_2037)"/>
<path d="M1091.29 36.6401L968.175 128.739L789.412 100.691L488.92 218.226L300.994 106.521L172.029 206.535L0.439483 92.6395L0.0892334 93.1589L172.05 207.304L301.033 107.276L488.854 218.92L789.48 101.336L968.332 129.398L1091.31 37.4144L1280.78 171.719L1439.3 68.0654L1438.96 67.5437L1280.8 170.969L1091.29 36.6461V36.6401Z" fill="url(#paint5_linear_271_2037)"/>
<path d="M1088.7 43.8337L1277.42 176.416L1438.97 73.1851L1439.3 73.6903L1277.39 177.142L1088.69 44.5787L966.128 136.468L784.013 105.698L487.425 220.494L296.328 111.879L170.534 210.477L0.098999 100.064L0.430499 99.5618L170.501 209.739L296.273 111.156L487.473 219.832L783.96 105.078L965.985 135.832L1088.7 43.8337Z" fill="url(#paint6_linear_271_2037)"/>
<path d="M1086.08 51.0281L963.788 142.923L778.5 109.463L486.035 221.434L291.559 115.79L168.979 212.941L0.42005 106.48L0.1073 106.967L169.015 213.65L291.617 116.482L486 222.069L778.575 110.06L963.96 143.536L1086.11 51.7423L1274.02 182.562L1439.3 79.3219L1439 78.8348L1274.03 181.87L1086.08 51.0281Z" fill="url(#paint7_linear_271_2037)"/>
<path d="M1083.48 58.2202L1270.64 187.322L1438.98 84.4815L1439.28 84.9522L1270.62 187.984L1083.5 58.9052L961.748 150.605L773.108 114.422L484.562 223.645L286.913 121.085L167.5 216.823L0.117798 113.87L0.411798 113.4L167.457 216.152L286.847 120.433L484.598 223.04L773.048 113.849L961.598 150.016L1083.47 58.2217L1083.48 58.2202Z" fill="url(#paint8_linear_271_2037)"/>
<path d="M1080.87 65.4153L959.423 157.107L767.61 118.235L483.16 224.644L282.135 125.059L165.938 219.348L0.402831 120.32L0.126831 120.773L165.983 219.994L282.204 125.686L483.129 225.22L767.647 118.784L959.549 157.675L1080.89 66.0674L1267.22 193.405L1439.27 90.5831L1438.99 90.1304L1267.24 192.775L1080.87 65.4153Z" fill="url(#paint9_linear_271_2037)"/>
<path d="M1078.27 72.6082L1263.86 198.23L1439 95.7808L1439.27 96.2155L1263.84 198.828L1078.27 73.2325L957.352 164.743L762.188 123.147L481.698 226.795L277.496 130.289L164.465 223.167L0.13501 127.677L0.39301 127.24L164.415 222.553L277.421 129.695L481.721 226.248L762.15 122.621L957.225 164.2L1078.27 72.6082Z" fill="url(#paint10_linear_271_2037)"/>
<path d="M1075.65 79.8018L955.05 171.292L756.705 127.007L480.285 227.85L272.71 134.328L162.895 225.754L0.384775 134.161L0.144775 134.58L162.949 226.34L272.788 134.893L480.266 228.371L756.735 127.509L955.163 171.811L1075.69 80.3946L1260.45 204.25L1439.25 101.848L1439 101.431L1260.47 203.684L1075.67 79.804L1075.65 79.8018Z" fill="url(#paint11_linear_271_2037)"/>
<path d="M1073.06 86.995L1257.07 209.133L1439.01 107.078L1439.23 107.477L1257.06 209.67L1073.07 87.5571L952.973 178.879L751.283 131.87L478.833 229.946L268.078 139.495L161.432 229.511L0.153076 141.483L0.375826 141.081L161.375 228.958L267.998 138.955L478.848 229.448L751.253 131.387L952.852 178.377L1073.05 86.9883L1073.06 86.995Z" fill="url(#paint12_linear_271_2037)"/>
<path d="M1070.45 94.1882L950.67 185.477L745.795 135.78L477.404 231.058L263.279 143.596L159.854 232.161L0.375056 148.001L0.169556 148.384L159.921 232.683L263.376 144.098L477.407 231.521L745.832 136.231L950.775 185.948L1070.48 94.7203L1253.68 215.092L1439.24 113.106L1439.02 112.726L1253.7 214.578L1070.45 94.1807L1070.45 94.1882Z" fill="url(#paint13_linear_271_2037)"/>
<path fill-rule="evenodd" clip-rule="evenodd" d="M1067.85 101.383L1250.31 220.038L1439.03 118.378L1439.23 118.738L1250.29 220.516L1067.86 101.887L948.593 193.017L740.378 140.596L475.975 233.1L258.66 148.704L253.872 152.866L474.539 234.265L734.899 144.554L946.305 199.663L1065.23 108.576L1246.91 225.491L1439.03 124.028L1439.22 124.369L1246.89 225.939L1065.26 109.049L946.38 200.085L734.907 144.957L474.527 234.676L253.95 153.308L249.192 157.51L473.105 235.869L729.447 148.94L944.116 206.757L1062.63 115.77L1243.53 230.943L1439.06 129.678L1439.23 130L1243.5 231.361L1062.65 116.213L944.198 207.153L729.459 149.318L473.102 236.251L249.24 157.911L244.515 162.153L471.675 237.471L724.003 153.326L941.932 213.85L1060.04 122.963L1240.14 236.394L1439.06 135.328L1439.2 135.629L1240.12 236.784L1060.04 123.377L941.992 214.215L723.998 153.674L471.675 237.829L244.529 162.515L239.843 166.797L470.231 239.074L718.541 157.712L939.75 220.941L1057.43 130.155L1236.75 241.845L1439.06 140.976L1439.21 141.258L1236.74 242.214L1057.45 130.548L939.825 221.297L718.564 158.05L470.249 239.413L239.832 167.128L235.182 171.448L468.795 240.675L713.09 162.099L937.552 228.035L1054.81 137.348L1233.35 247.296L1439.06 146.627L1439.19 146.889L1233.34 247.631L1054.84 137.703L937.613 228.357L713.094 162.404L468.8 240.98L235.107 171.723L230.513 176.082L467.362 242.279L707.639 166.485L935.364 235.128L1052.21 144.541L1229.96 252.747L1439.06 152.276L1439.18 152.517L1229.93 253.052L1052.21 144.866L935.409 235.424L707.634 166.766L467.36 242.557L230.39 176.327L225.849 180.725L465.92 243.881L702.18 170.872L933.175 242.221L1049.6 151.735L1226.57 258.2L1439.07 157.928L1439.18 158.148L1226.55 258.476L1049.61 152.032L933.212 242.493L702.173 171.129L465.918 244.137L225.675 180.934L221.195 185.369L464.483 245.486L696.725 175.261L930.983 249.316L1047 158.929L1223.18 263.651L1439.07 163.578L1439.17 163.777L1223.17 263.9L1047.01 159.196L931.027 249.562L696.724 175.492L464.498 245.712L221.019 185.551L218.392 188.151L216.556 190.012L463.056 247.087L691.279 179.646L928.8 256.409L1044.39 166.121L1219.79 269.1L1439.09 169.227L1439.17 169.405L1219.79 269.322L1044.41 166.357L928.837 256.625L691.277 179.849L463.062 247.288L216.395 190.173L211.965 194.661L461.622 248.687L685.827 184.031L926.611 263.5L1041.79 173.312L1216.41 274.551L1439.09 174.869L1439.16 175.019L1216.4 274.729L1041.8 173.506L926.641 263.679L685.816 184.196L461.621 248.849L211.814 194.79L209.547 197.087L207.413 199.303L460.18 250.274L680.365 188.402L924.427 270.595L1039.18 180.507L1213.03 280.002L1439.1 180.529L1439.16 180.664L1213.01 280.169L1039.2 180.686L924.45 270.763L680.361 188.574L460.185 250.444L207.29 199.448L201.054 205.921L193.017 214.488L141.672 270.764L0.244538 231.207L0.285038 231.065L141.632 270.596L185.696 222.299L143.201 267.59L0.240038 224.307L0.291038 224.142L143.149 267.395L191.876 215.459L144.722 264.417L0.234038 217.404L0.295538 217.216L144.665 264.189L198.039 208.767L146.244 261.241L0.228038 210.504L0.301538 210.296L146.184 260.988L201.831 204.614L202.476 203.908L147.764 258.069L0.223538 203.604L0.309038 203.375L147.702 257.786L205.724 200.349L206.676 199.305L149.284 254.896L0.215288 196.701L0.314288 196.451L149.219 254.583L218.165 187.801L150.803 251.722L0.208538 189.8L0.321038 189.53L150.738 251.381L225.063 180.851L152.321 248.55L0.201038 182.897L0.328538 182.608L152.256 248.177L231.995 173.967L153.84 245.376L0.193538 175.995L0.336038 175.686L153.776 244.974L239.096 167.018L155.36 242.204L0.186038 169.092L0.343538 168.764L155.295 241.77L246.169 160.178L156.878 239.03L0.178538 162.191L0.351038 161.844L156.815 238.568L253.343 153.326L158.396 235.858L0.170288 155.288L0.359288 154.923L158.334 235.365L258.576 148.23L475.975 232.662L740.35 140.168L948.487 192.57L1067.85 101.383ZM206.79 199.194L206.865 199.21L210.36 195.75L210.591 195.505L206.783 199.193L206.79 199.194ZM204.564 201.839L204.502 201.907L204.788 201.617L204.563 201.838L204.564 201.839Z" fill="url(#paint14_linear_271_2037)"/>
</g>
<mask id="mask0_271_2037" style="mask-type:alpha" maskUnits="userSpaceOnUse" x="0" y="230" width="1440" height="109">
<path opacity="0.4" d="M0 230.842H1440V338.018H0V230.842Z" fill="url(#paint15_linear_271_2037)"/>
</mask>
<g mask="url(#mask0_271_2037)">
<path opacity="0.5" d="M-346.875 369.494H1790.87M-222.043 346.452H1666.03M-123.323 328.234H1567.32M-43.2915 313.462H1487.29M22.8945 301.245H1421.1M78.5452 290.976H1365.45M126 282.217H1318.01M166.92 274.667H1277.08M202.59 268.079H1241.42M233.95 262.292H1210.05M261.739 257.164H1182.25M286.53 252.59H1157.48M308.792 248.477H1135.2M328.878 244.769H1115.1M347.1 241.409H1096.87M363.727 238.341H1080.25M378.928 235.535H1065.05M392.896 232.955H1051.09M405.772 230.576H1038.21M417.679 228.38H1026.3M987.337 226.345L1836.43 399.556M959.4 226.345L1719.12 399.556M931.477 226.345L1601.81 399.556M903.547 226.345L1484.51 399.556M875.625 226.345L1367.2 399.556M847.687 226.345L1249.89 399.556M819.75 226.345L1132.57 399.556M791.827 226.345L1015.27 399.556M763.897 226.345L897.96 399.556M735.961 226.345L780.652 399.556M708.034 226.345L663.346 399.556M680.098 226.345L546.035 399.556M596.306 226.345L194.1 399.556M568.378 226.345L76.7962 399.556M540.45 226.345L-40.515 399.556M512.515 226.345L-157.819 399.556M484.587 226.345L-275.13 399.556M456.66 226.345L-392.442 399.556M652.17 226.345L428.722 399.556M624.242 226.345L311.419 399.556M428.722 226.345H1015.27L1953.75 399.556H-509.754L428.722 226.345Z" stroke="url(#paint16_linear_271_2037)" stroke-miterlimit="10"/>
</g>
<g filter="url(#filter0_f_271_2037)">
<path d="M735.375 287.053C1027.19 287.053 1263.75 264.739 1263.75 237.212C1263.75 209.686 1027.19 187.372 735.375 187.372C443.562 187.372 207 209.686 207 237.212C207 264.739 443.562 287.053 735.375 287.053Z" fill="#2D174F" fill-opacity="0.78"/>
</g>
<g opacity="0.3" filter="url(#filter1_f_271_2037)">
<path d="M720.375 282.556C842.775 282.556 942 255.376 942 221.848C942 188.32 842.775 161.14 720.375 161.14C597.975 161.14 498.75 188.32 498.75 221.848C498.75 255.376 597.975 282.556 720.375 282.556Z" fill="#2D174F" fill-opacity="0.78"/>
</g>
</g>
<defs>
<filter id="filter0_f_271_2037" x="103" y="83.3716" width="1264.75" height="307.682" filterUnits="userSpaceOnUse" color-interpolation-filters="sRGB">
<feFlood flood-opacity="0" result="BackgroundImageFix"/>
<feBlend mode="normal" in="SourceGraphic" in2="BackgroundImageFix" result="shape"/>
<feGaussianBlur stdDeviation="52" result="effect1_foregroundBlur_271_2037"/>
</filter>
<filter id="filter1_f_271_2037" x="394.75" y="57.1396" width="651.25" height="329.417" filterUnits="userSpaceOnUse" color-interpolation-filters="sRGB">
<feFlood flood-opacity="0" result="BackgroundImageFix"/>
<feBlend mode="normal" in="SourceGraphic" in2="BackgroundImageFix" result="shape"/>
<feGaussianBlur stdDeviation="52" result="effect1_foregroundBlur_271_2037"/>
</filter>
<linearGradient id="paint0_linear_271_2037" x1="719.696" y1="0.671631" x2="719.696" y2="382.171" gradientUnits="userSpaceOnUse">
<stop stop-color="#01D1FF"/>
<stop offset="1" stop-color="#660DAC" stop-opacity="0"/>
</linearGradient>
<linearGradient id="paint1_linear_271_2037" x1="719.696" y1="0.671644" x2="719.696" y2="382.171" gradientUnits="userSpaceOnUse">
<stop stop-color="#01D1FF"/>
<stop offset="1" stop-color="#660DAC" stop-opacity="0"/>
</linearGradient>
<linearGradient id="paint2_linear_271_2037" x1="719.696" y1="0.671673" x2="719.696" y2="382.171" gradientUnits="userSpaceOnUse">
<stop stop-color="#01D1FF"/>
<stop offset="1" stop-color="#660DAC" stop-opacity="0"/>
</linearGradient>
<linearGradient id="paint3_linear_271_2037" x1="719.696" y1="0.671722" x2="719.696" y2="382.171" gradientUnits="userSpaceOnUse">
<stop stop-color="#01D1FF"/>
<stop offset="1" stop-color="#660DAC" stop-opacity="0"/>
</linearGradient>
<linearGradient id="paint4_linear_271_2037" x1="719.696" y1="0.671507" x2="719.696" y2="382.171" gradientUnits="userSpaceOnUse">
<stop stop-color="#01D1FF"/>
<stop offset="1" stop-color="#660DAC" stop-opacity="0"/>
</linearGradient>
<linearGradient id="paint5_linear_271_2037" x1="719.696" y1="0.671524" x2="719.696" y2="382.171" gradientUnits="userSpaceOnUse">
<stop stop-color="#01D1FF"/>
<stop offset="1" stop-color="#660DAC" stop-opacity="0"/>
</linearGradient>
<linearGradient id="paint6_linear_271_2037" x1="719.696" y1="0.671552" x2="719.696" y2="382.171" gradientUnits="userSpaceOnUse">
<stop stop-color="#01D1FF"/>
<stop offset="1" stop-color="#660DAC" stop-opacity="0"/>
</linearGradient>
<linearGradient id="paint7_linear_271_2037" x1="719.696" y1="0.671567" x2="719.696" y2="382.171" gradientUnits="userSpaceOnUse">
<stop stop-color="#01D1FF"/>
<stop offset="1" stop-color="#660DAC" stop-opacity="0"/>
</linearGradient>
<linearGradient id="paint8_linear_271_2037" x1="719.696" y1="0.671627" x2="719.696" y2="382.171" gradientUnits="userSpaceOnUse">
<stop stop-color="#01D1FF"/>
<stop offset="1" stop-color="#660DAC" stop-opacity="0"/>
</linearGradient>
<linearGradient id="paint9_linear_271_2037" x1="719.696" y1="0.671647" x2="719.696" y2="382.171" gradientUnits="userSpaceOnUse">
<stop stop-color="#01D1FF"/>
<stop offset="1" stop-color="#660DAC" stop-opacity="0"/>
</linearGradient>
<linearGradient id="paint10_linear_271_2037" x1="719.696" y1="0.671671" x2="719.696" y2="382.171" gradientUnits="userSpaceOnUse">
<stop stop-color="#01D1FF"/>
<stop offset="1" stop-color="#660DAC" stop-opacity="0"/>
</linearGradient>
<linearGradient id="paint11_linear_271_2037" x1="719.696" y1="0.671707" x2="719.696" y2="382.171" gradientUnits="userSpaceOnUse">
<stop stop-color="#01D1FF"/>
<stop offset="1" stop-color="#660DAC" stop-opacity="0"/>
</linearGradient>
<linearGradient id="paint12_linear_271_2037" x1="719.696" y1="0.67141" x2="719.696" y2="382.171" gradientUnits="userSpaceOnUse">
<stop stop-color="#01D1FF"/>
<stop offset="1" stop-color="#660DAC" stop-opacity="0"/>
</linearGradient>
<linearGradient id="paint13_linear_271_2037" x1="719.696" y1="0.671715" x2="719.696" y2="382.171" gradientUnits="userSpaceOnUse">
<stop stop-color="#01D1FF"/>
<stop offset="1" stop-color="#660DAC" stop-opacity="0"/>
</linearGradient>
<linearGradient id="paint14_linear_271_2037" x1="719.696" y1="0.671781" x2="719.696" y2="382.171" gradientUnits="userSpaceOnUse">
<stop stop-color="#01D1FF"/>
<stop offset="1" stop-color="#660DAC" stop-opacity="0"/>
</linearGradient>
<linearGradient id="paint15_linear_271_2037" x1="720" y1="230.842" x2="720" y2="338.018" gradientUnits="userSpaceOnUse">
<stop stop-color="#1E1D58"/>
<stop offset="1" stop-color="#040D2F"/>
</linearGradient>
<linearGradient id="paint16_linear_271_2037" x1="721.998" y1="226.345" x2="721.998" y2="399.556" gradientUnits="userSpaceOnUse">
<stop stop-color="#01D1FF"/>
<stop offset="1" stop-color="#660DAC"/>
</linearGradient>
<clipPath id="clip0_271_2037">
<rect width="1440" height="365" fill="white"/>
</clipPath>
</defs>
</svg>
