<svg width="2550" height="380" viewBox="0 0 2550 380" fill="none" xmlns="http://www.w3.org/2000/svg">
<path opacity="0.5" d="M-1095.67 574.345H3646.68H-1095.67ZM-818.745 482.056H3369.75H-818.745ZM-599.744 409.093H3150.75H-599.744ZM-422.206 349.927H2973.21H-422.206ZM-275.38 300.999H2826.38H-275.38ZM-151.923 259.862H2702.92H-151.923ZM-46.6687 224.784H2597.66H-46.6687ZM44.121 194.541H2506.88H44.121ZM123.254 168.159H2427.78H123.254ZM192.824 144.978H2358.19H192.824ZM254.469 124.433H2296.51H254.469ZM309.466 106.114H2241.54H309.466ZM358.85 89.6475H2192.16H358.85ZM403.426 74.7979H2147.6H403.426ZM443.866 61.3353H2107.14H443.866ZM480.738 49.0482H2070.27H480.738ZM514.458 37.8128H2036.54H514.458ZM545.444 27.4779H2005.56H545.444ZM574.005 17.9498H1977H574.005ZM600.421 9.18633H1950.57H600.421ZM1864.12 1.02721L3747.77 694.777L1864.12 1.02721ZM1802.16 1L3487.52 694.75L1802.16 1ZM1740.22 1L3227.28 694.75L1740.22 1ZM1678.25 1L2967.05 694.75L1678.25 1ZM1616.29 1L2706.82 694.75L1616.29 1ZM1554.31 1L2446.55 694.75L1554.31 1ZM1492.37 1L2186.33 694.75L1492.37 1ZM1430.41 1L1926.1 694.75L1430.41 1ZM1368.45 1L1665.85 694.75L1368.45 1ZM1306.48 1L1405.62 694.75L1306.48 1ZM1244.53 1L1145.39 694.75L1244.53 1ZM1182.55 1L885.15 694.75L1182.55 1ZM996.674 1L104.437 694.75L996.674 1ZM934.698 1L-155.805 694.75L934.698 1ZM872.76 1L-416.05 694.75L872.76 1ZM810.787 1L-676.275 694.75L810.787 1ZM748.833 1L-936.517 694.75L748.833 1ZM686.876 1L-1196.76 694.75L686.876 1ZM1120.6 1L624.903 694.75L1120.6 1ZM1058.64 1L364.68 694.75L1058.64 1ZM624.905 1H1926.1L4008 694.75H-1457L624.905 1Z" stroke="url(#paint0_linear_752_225)" stroke-opacity="0.5" stroke-width="0.583942" stroke-miterlimit="10"/>
<defs>
<linearGradient id="paint0_linear_752_225" x1="1275.5" y1="1" x2="1275.5" y2="694.75" gradientUnits="userSpaceOnUse">
<stop stop-color="#01D1FF"/>
<stop offset="1" stop-color="#660DAC"/>
</linearGradient>
</defs>
</svg>
