<svg xmlns="http://www.w3.org/2000/svg" width="1920" height="209" fill="none"  xmlns:v="https://vecta.io/nano"><mask id="A" mask-type="alpha" maskUnits="userSpaceOnUse" x="0" y="0" width="1920" height="209"><path fill="url(#B)" d="M0 0h1920v208.608H0z"/></mask><g mask="url(#A)"><path opacity=".5" d="M-464.83 151.982H2385.5m-2683.885-30.54H2219.06M-166.757 97.297H2087.43M-60.05 77.718h2040.77M28.198 61.527H1892.47M102.4 47.914h1715.87M165.662 36.306H1755M220.23 26.298h1480.21m-1432.648-8.73H1652.9M309.606 9.897H1611.07M346.657 3.098H1574M379.712-2.964H1540.96M409.394-8.413H1511.28M436.186-13.327H1484.5M460.492-17.782h999.688m-977.527-4.066h955.367m-935.1-3.718h914.83m-896.206-3.42h877.586m-860.42-3.153h843.25m-827.373-2.9h811.493m-51.96-2.7l1132.14 229.574M1276.88-37.748l1012.96 229.574M1239.65-37.748l893.78 229.574M1202.4-37.748l774.62 229.574M1165.16-37.748l655.45 229.574m-692.7-229.574l536.27 229.574m-573.5-229.574l417.1 229.574M1053.44-37.748l297.93 229.574M1016.2-37.748l178.75 229.574M978.954-37.748l59.586 229.574M941.718-37.748l-59.584 229.574M904.47-37.748l-178.75 229.574m67.03-229.574L256.482 191.826M755.5-37.748L100.067 191.826M718.273-37.748L-56.35 191.826M681.025-37.748l-893.78 229.574M643.788-37.748L-369.17 191.826M606.55-37.748L-525.585 191.826M867.232-37.748l-297.93 229.574M829.995-37.748L412.898 191.826M569.303-37.748h782.067l1251.3 229.574H-682L569.303-37.748z" stroke="url(#C)" stroke-miterlimit="10"/></g><defs><linearGradient id="B" x1="960" y1="0" x2="960" y2="208.608" gradientUnits="userSpaceOnUse"><stop stop-opacity="0"/><stop offset=".5"/><stop offset="1" stop-opacity="0"/></linearGradient><linearGradient id="C" x1="960.336" y1="-37.748" x2="960.336" y2="191.826" gradientUnits="userSpaceOnUse"><stop stop-color="#01d1ff"/><stop offset="1" stop-color="#660dac"/></linearGradient></defs></svg>