<svg width="124" height="17" viewBox="0 0 124 17" fill="none"
  xmlns="http://www.w3.org/2000/svg">
  <rect x="20" y="7.5" width="80" height="1" fill="#660DAC"/>
  <path fill-rule="evenodd" clip-rule="evenodd" d="M114.139 16.0957C114.33 16.2952 114.646 16.3022 114.846 16.1113L121.846 9.4136L122 9.26593L122 9.05233L122 8.75L122 8.25H121.5H109.5C109.224 8.25 109 8.47386 109 8.75C109 9.02614 109.224 9.25 109.5 9.25L120.57 9.25L114.154 15.3887C113.955 15.5796 113.948 15.8961 114.139 16.0957ZM119.854 6.40588C120.049 6.21062 120.049 5.89404 119.854 5.69877L115.051 0.896447C114.856 0.701185 114.539 0.701185 114.344 0.896447C114.149 1.09171 114.149 1.40829 114.344 1.60355L119.146 6.40588C119.342 6.60114 119.658 6.60114 119.854 6.40588Z" fill="#660DAC"/>
  <path d="M0.736 14.344C0.650667 14.344 0.576 14.312 0.512 14.248C0.448 14.184 0.416 14.1093 0.416 14.024C0.416 13.9813 0.432 13.9173 0.464 13.832L5.936 0.712C6.02133 0.52 6.16 0.424 6.352 0.424H6.976C7.06133 0.424 7.136 0.456 7.2 0.52C7.264 0.583999 7.296 0.658666 7.296 0.743999C7.296 0.818666 7.28533 0.882666 7.264 0.936L1.776 14.056C1.69067 14.248 1.552 14.344 1.36 14.344H0.736ZM5.1735 14.344C5.08817 14.344 5.0135 14.312 4.9495 14.248C4.8855 14.184 4.8535 14.1093 4.8535 14.024C4.8535 13.9813 4.8695 13.9173 4.9015 13.832L10.3735 0.712C10.4588 0.52 10.5975 0.424 10.7895 0.424H11.4135C11.4988 0.424 11.5735 0.456 11.6375 0.52C11.7015 0.583999 11.7335 0.658666 11.7335 0.743999C11.7335 0.818666 11.7228 0.882666 11.7015 0.936L6.2135 14.056C6.12817 14.248 5.9895 14.344 5.7975 14.344H5.1735Z" fill="#660DAC"/>
</svg>
