<svg width="989" height="318" viewBox="0 0 989 318" fill="none" xmlns="http://www.w3.org/2000/svg">
<path d="M419.958 121.109V139.319H481.784L419.958 222.176H518.731V203.965H457.992L518.731 121.101H419.958V121.109ZM603.77 121.109H563.349C554.292 121.109 546.995 123.935 541.435 129.377C535.876 134.818 533.099 142.21 533.099 151.368V191.789C533.099 200.948 535.876 208.304 541.435 213.859C546.995 219.413 554.292 222.197 563.349 222.197H603.77C612.926 222.197 620.273 219.399 625.832 213.717C631.392 208.036 634.168 200.785 634.168 191.726V151.304C634.168 142.245 631.392 134.938 625.832 129.384C620.273 123.829 612.926 121.045 603.77 121.045V121.109ZM613.943 193.895C613.943 196.884 612.989 199.294 611.089 201.153C609.189 203.011 606.744 203.93 603.763 203.93H563.341C560.353 203.93 557.944 203.011 556.094 201.153C554.243 199.294 553.31 196.877 553.31 193.895V149.375C553.31 146.407 554.229 143.976 556.094 142.125C557.958 140.273 560.353 139.333 563.341 139.333H603.763C606.744 139.333 609.189 140.252 611.089 142.125C612.989 143.997 613.943 146.393 613.943 149.375V193.895ZM847.015 193.57C847.015 196.651 846.097 199.223 844.239 201.061C842.381 202.898 839.965 203.909 836.984 203.909H796.562C793.581 203.909 791.136 202.955 789.236 201.061C787.336 199.167 786.382 196.651 786.382 193.57V121.094H766.178V191.789C766.178 200.849 768.976 208.184 774.655 213.781C780.335 219.378 787.583 222.261 796.647 222.261H837.068C846.111 222.261 853.422 219.484 858.968 213.922C864.513 208.361 867.304 201.011 867.304 191.853V121.094H847.1V193.641L847.015 193.57ZM957.218 162.477H912.006C909.018 162.477 906.581 161.558 904.674 159.685C902.766 157.813 901.827 155.431 901.827 152.435V149.347C901.827 146.379 902.745 143.948 904.603 142.097C906.461 140.245 908.87 139.305 911.851 139.305H956.356C959.443 139.305 961.909 140.224 963.759 142.097C965.61 143.969 966.536 146.365 966.536 149.347V151.361H986.739C986.739 145.397 985.482 140.054 982.953 135.532C980.522 131.046 976.857 127.35 972.392 124.882C967.871 122.373 962.615 121.101 956.653 121.101H911.145C902.3 121.101 895.179 123.801 889.782 129.207C884.385 134.613 881.679 141.743 881.679 150.584C881.679 159.756 884.364 167.049 889.704 172.504C895.045 177.96 902.208 180.702 911.152 180.702H956.363C959.443 180.702 961.916 181.642 963.766 183.557C965.617 185.472 966.55 187.903 966.55 190.892V193.973C966.55 196.962 965.617 199.372 963.766 201.23C961.916 203.089 959.443 204.008 956.363 204.008H911.858C908.87 204.008 906.454 203.089 904.603 201.23C902.752 199.372 901.827 196.955 901.827 193.973V191.811H881.623C881.623 200.969 884.399 208.325 889.959 213.88C895.518 219.434 902.816 222.218 911.872 222.218H957.225C966.069 222.218 973.19 219.519 978.594 214.113C983.998 208.707 986.69 201.591 986.69 192.736C986.69 183.55 984.02 176.13 978.672 170.667C973.324 165.205 966.168 162.491 957.218 162.491V162.477ZM751.81 151.368C751.81 142.309 749.033 135.002 743.474 129.447C737.914 123.893 730.567 121.109 721.412 121.109H648.501V194.899L668.705 222.204V180.695H703.108L728.872 222.204H751.704L725.17 180.532C733.195 179.712 739.624 176.645 744.456 171.345C749.288 166.045 751.704 159.389 751.704 151.361L751.81 151.368ZM731.606 152.449C731.606 155.438 730.652 157.848 728.752 159.7C726.851 161.551 724.407 162.491 721.426 162.491H668.797V139.326H721.426C724.407 139.326 726.844 140.245 728.752 142.118C730.659 143.99 731.606 146.393 731.606 149.368V152.456V152.449Z" fill="#041242"/>
<path d="M164.457 0L0 222.204L164.457 317.152L328.871 222.197L164.457 0ZM156.446 294.065L27.692 219.703L156.446 145.079V294.065ZM156.446 126.613L41.1141 193.45L156.446 37.63V126.67V126.613ZM172.411 37.6441L287.735 193.507L172.411 126.606V37.6512V37.6441ZM172.411 145.072L301.179 219.773L172.418 294.143V145.079L172.411 145.072Z" fill="url(#paint0_linear_255_32)"/>
<path d="M180.408 174.285V192.234L214.02 211.738H180.408V227.285L271.502 227.306L180.408 174.306V174.285ZM148.463 264.972V247.121L113.897 227.158L148.463 227.172V211.625L56.1752 211.597L148.463 264.88V264.972Z" fill="#041242"/>
<defs>
<linearGradient id="paint0_linear_255_32" x1="164.435" y1="345.263" x2="164.435" y2="11.1936" gradientUnits="userSpaceOnUse">
<stop offset="0.165" stop-color="#660DAC"/>
<stop offset="1" stop-color="#00B5F4"/>
</linearGradient>
</defs>
</svg>
