<svg xmlns="http://www.w3.org/2000/svg" width="1072" height="373" fill="none"  xmlns:v="https://vecta.io/nano"><mask id="A" mask-type="alpha" maskUnits="userSpaceOnUse" x="0" y="0" width="1072" height="373"><path fill="url(#B)" d="M0 0h1072v373H0z"/></mask><g mask="url(#A)"><path opacity=".2" fill-rule="evenodd" d="M1004.45 9.684l-1.02-1.906-.97 1.936-50.95 102.06-7.265 13.578-7.5 13.08-7.753 12.6-7.985 12.105-5.586 7.89-161.01-94.27-187.826 107L366.837 70.068l-47.872 91.205L172.39 213.02l-3.77 1.18L.24 193.026l-.28 2.225 120.61 15.166L.205 198.676l-.2 2.15 119.952 11.702L.17 204.326.03 206.402l119.123 8.156L.14 209.977l-.077 2 118.085 4.545-118.04-.89-.014 1.92 116.883.882L.078 221.283l.045 1.837 115.548-2.82L.05 226.937l.1 1.754 114.034-6.544L.024 232.592l.153 1.67 112.405-10.285L0 238.248l.2 1.583 110.64-14.024L-.022 243.904.222 245.4l108.8-17.76L-.04 249.562l.283 1.406L107.045 229.5-.058 255.22l.316 1.317 104.21-25.025-.032.03L-.072 260.877l.344 1.226 102.262-28.69-102.617 33.12.366 1.135 100.35-32.385L-.09 272.193l.383 1.044 98.218-35.99L-.096 277.85l.393.953 95.946-39.508-96.34 44.212.396.864 93.658-42.98-94.053 47.774.394.775 91.334-46.392L-.092 294.82l.385.688 89.04-49.772-89.417 54.74.37.604L86.993 248-.074 306.13l.35.522 84.42-56.364L-.06 311.782l.32.442 82.156-59.607-82.46 64.816.288.366 79.904-62.806L-.024 323.08l.25.294 77.713-66-77.94 71.352.206.225 75.543-69.157L.022 334.374l.157.16 80.102-78.888 3.9-3.57 3.965-3.367 4.077-3.205 4.146-3.008 4.23-2.824 4.348-2.662 4.39-2.455.613-.31 118.326 103.925.067-.033 115.43-57.366 290.61 92.025 103.66-152.443 63.625 70.23.06-.01 154.077-22.687 119.405 48.02.08-.208-119.488-48.04-154.047 22.683-63.736-70.353-.08.118-103.692 152.492-290.53-92.05L228.313 337.9 110.167 234.133l1.954-.993 119.814 98.04.09-.046L344.72 272.45l286.987 92.86 106.996-150.587 67.723 71.306.082-.016 151.198-28.39 117.483 51.44.12-.28-117.614-51.467L806.534 285.7l-67.864-71.454-.107.15-107.038 150.648-286.888-92.893-112.665 58.666-119.554-97.828 1.435-.728.42-.193 121.432 92.066 109.963-60 283.28 93.81 110.416-148.848 71.824 72.385.105-.024 148.316-34.088 115.562 54.852.16-.35-115.677-54.91-.066.015-148.277 34.08-72-72.55-.133.18L628.804 357.49l-283.248-93.733-109.927 59.98-120.96-91.85 1.787-.82 122.8 86.14.13-.073 107.228-61.316 279.738 94.534 113.67-146.887 75.93 73.467.13-.035L961.51 237.11l113.63 58.264.22-.415-113.885-58.322-145.39 39.774-76.113-73.644-.16.206-113.727 146.96-279.612-94.573-107.2 61.294-122.336-85.815 1.48-.68.184-.075 124.312 80.133.146-.087 104.492-62.63 276.11 95.37L740.68 197.832l80.036 74.553.152-.05 142.545-45.48 111.707 61.673.26-.48-111.908-61.786-142.618 45.503-80.23-74.736-117.256 145.35L347.5 246.903l-.1.065-104.455 62.607-123.707-79.743 1.588-.654 125.777 74.053.162-.102 101.755-63.94 272.342 96.376.14-.167 120.346-143.2 84.147 75.64.178-.065 139.655-51.17L1075.1 281.68l.32-.54-110.03-65.23-139.757 51.208-84.35-75.823-.21.25-120.415 143.28-272.217-96.332-.13.08-101.723 63.92-125.038-73.618 1.436-.59 127.285 67.954 99.195-65.367 268.69 97.23.16-.182 123.686-141.36 88.26 76.732.203-.084 136.762-56.856 107.84 68.478.38-.598-108.15-68.676-.17.07-136.73 56.843-88.46-76.907-.233.265-123.758 141.443-268.57-97.186-.148.097-98.99 65.234-126.36-67.46 1.34-.492L253.94 289.25l.19-.13 96.28-66.56 265.218 97.887 127.026-139.522 92.377 77.826.228-.106 133.867-62.54 105.906 71.875.44-.653L969.197 195.2l-.204.095-133.84 62.527-92.573-78L615.222 319.72l-264.925-98.04-96.43 66.663-127.628-61.254 1.157-.424 130.22 55.595.2-.145 93.542-67.866 261.383 98.937.2-.2 130.367-137.687 96.497 78.922.254-.133 130.97-68.215L1075 261.128l.5-.704-104.406-75.582-131.192 68.33-96.68-79.07-.278.294-130.445 137.77-261.47-98.76-93.532 67.86-128.874-55.02 1.012-.326L261.3 275.265l.21-.16 90.803-69.17 257.726 99.79.22-.223L743.964 169.65l100.62 80.02.28-.162 128.07-73.886 102.026 78.654.58-.753-102.53-79.042-.276.16L844.67 248.52l-100.783-80.15-134.088 136.24-257.64-99.755-.21.16L261.14 274.2 131.1 225.448l.777-.25 133.108 43.072 88.28-70.645 254.065 100.64.24-.234 137.05-134.02 104.747 81.12.305-.195 125.17-79.55 100.08 82.035.66-.797-100.663-82.51-.315.2-125.178 79.557-104.884-81.226-137.452 134.415-254-100.613-88.315 70.672-131.162-42.442.546-.153 134.514 36.75.223-.187 85.325-71.77 250.403 101.49.26-.245 140.392-132.2 108.876 82.22 122.597-85.44 98.143 85.41.73-.838-98.798-85.98-.355.248-115.14 80.244 117.327-89.313 96.197 88.78.8-.876-96.933-89.46L872.73 224.05l107.83-89.354 94.25 92.143.9-.9-95.07-92.945-.44.366-96.293 79.795 98.572-88.667 92.29 95.498.98-.94-93.205-96.438-75.424 67.845.355-.577 1.053-1.713 2.485-2.42.752.453.53-.92 1.01-1.764 2.417-2.354.857.5 1.503-2.808 2.348-2.287.966.566 1.464-2.933 61.527-59.927 90.342 98.845 1.06-.968-91.342-99.938-.53.516-59.11 57.573 1.6-3.203 59.89-63.03 88.392 102.184 1.14-.992-89.48-103.448-57.63 60.65 1.232-2.468 58.255-66.124 86.432 105.513 1.24-1.012L988.242 91.4l-55.516 63.017.763-1.53 56.62-69.21 84.48 108.832 1.32-1.028-85.767-110.495-53.26 65.106.155-.3 54.983-72.286 82.52 112.142 1.42-1.042L992.044 70.56l-46.74 61.45 48.63-68.685 80.567 115.438 1.5-1.052-82.056-117.583-39.335 55.558 41.237-62.52 78.604 118.725 1.6-1.06-80.207-121.146-32.216 48.844 34.132-55.512 76.64 121.997 1.7-1.064-78.36-124.72L972.37 80.5l27.304-47.61 74.686 125.255 1.78-1.065-76.5-128.31-.885 1.543-17.933 31.27 20.77-38.815 72.72 128.5 1.88-1.065-74.65-131.915-.93 1.73-11.636 21.746L1003.5 12.65l70.76 131.725 1.98-1.06-71.8-133.63zm-90.33 163.188L754.394 79.356l-187.81 107-198.84-113.183-16.497 31.43 14.688-26.083 203.34 112.807L753.75 82.5l157.917 93.74 1.094-1.437 1.36-1.922zm-596.372-8.792l-86.45 30.52 84.065-26.287 2.385-4.234zM753.745 85l156.605 92.962-2.58 3.393-154.68-93.143L571.97 198.87 365.03 86.95l-20.913 34.71 22.647-40.217L569.31 193.808l.533-.314L753.745 85zm-531.137 114.58l91.865-28.725-2.712 4.5-89.153 24.225zm683.894-16.56L753.096 90.646 572.033 201.27l-.527-.284-205.72-111.26-29.33 48.68 27.667-43.017 210.54 111.036L752.428 93.937l.53.324 150.884 92.216.432-.528 2.227-2.928zm-595.297-5.357l-97.067 26.375 94.02-21.637 3.047-4.738zm441.24-81.373l150.12 91.75-2.83 3.46L751.77 99.66l-.512.335-173.898 113.98L363.213 103.82l-34.953 51.023 36.552-56.832 209.943 110.72.49-.3L752.446 96.29zM205.9 207.984l102.03-23.48-3.388 4.946-98.643 18.534zm700.953-17.318l-.568-.347-2.55 2.484-1.083 1.642 4.202-3.78zm-8.354 2.33l-146.712-91.06-174.32 114.257-.497-.256L363.84 106.3l-44.303 64.67 42.764-58.72.697.35 217.058 108.927L751.11 105.384l144.51 91.145 2.89-3.532zm-593.834-1.618l-106.77 20.062 103.04-14.942 3.728-5.12zm596.9 3.528l.334.207-3.56 3.202.608-.86 2.618-2.55zm-150.44-87.326l143.246 90.347-3.094 3.51-140.848-90.33-.483.34L582.754 229.08l-221.366-108.4-.44.567-50.686 65.583 52.607-72.237 217.326 109.062.446-.303 170.504-115.77zM190.09 214.43l111.314-16.14-4.066 5.262-107.248 10.88zm706.886-14.873l-.102-.064-2.097 2.042 2.2-1.978zm-6.854 3.215l-139.627-89.548-167.58 117.89-221.013-108.228-61.436 79.49 60.006-73.275.593.284 224.388 107.245 164.34-119.8.485.316 136.692 89.204 3.154-3.58zm-591.998 2.465l-.233.024-115.386 11.705 111.223-6.36 4.396-5.368zm451.72-86.368l135.97 88.732-3.37 3.546-133.31-88.6-160.98 121.627-228.6-106.657-.394.455-69.042 79.68-115.028 1.41 119.47-6.833 66.376-81.054 224.696 107.393.404-.295 163.81-119.412zm131.484 93.452l-132.136-87.81L588.35 246.038l-.436-.203L359.97 139.483l-69.116 79.766-.36.005-122.625 1.5 118.634 3.966 72.13-78.772.5.23 231.72 105.56 157.62-123.456 129.422 87.65 3.43-3.61zM748.54 130.157l128.274 86.873-3.657 3.56-125.34-86.583-.418.34L593.557 259.29 357.714 154.37 282.9 231.78l-122.088-9.746 126.35 4.223.236-.257 71.622-78.216L591.064 253.5 748.54 130.157zm123.768 91.59L747.888 135.8l-154.1 125.16-235.73-104.872-74.597 77.177-129.54-10.34 125.36 15.92 77.52-76.058 239.47 104.058 150.9-127.1 121.255 85.514 3.892-3.5zm-125.073-80.305l120.573 85.034-4.137 3.428-117.166-84.444-.38.333-147.16 128.604-243.098-103.194-.303.28L275.65 245.9l-128.497-22.48 132.598 16.84.234-.23 77.103-75.65L596.49 268.42l.32-.27 150.424-126.708zm-642.22 89.936l-.128.03-.007.007.135-.038zm758.3-.16l-116.734-84.132-147.38 128.796L356.13 172.7l-80.075 74.574-.312-.055-135.23-23.656 131.514 29.415 82.914-73.358 246.73 102.332L745.85 151.188l.393.3 112.683 83.083 4.39-3.343zm-727.08-7.28l.218-.06 135.906 30.397.228-.202 82.584-73.066 246.74 102.336 144.015-130.615 112.902 83.245-4.654 3.243-108.98-82.3-.34.322L604.38 289.505 354.016 188.032l-.257.216-85.357 71.798-132.164-36.108z" fill="url(#C)"/></g><defs><radialGradient id="B" cx="0" cy="0" r="1" gradientUnits="userSpaceOnUse" gradientTransform="translate(536 186.5) rotate(90) scale(186.5 536)"><stop offset=".677" stop-color="#1e1d58"/><stop offset="1" stop-color="#040d2f" stop-opacity="0"/></radialGradient><linearGradient id="C" x1="-.169" y1="189.742" x2="1076.73" y2="189.742" gradientUnits="userSpaceOnUse"><stop stop-color="#660dac"/><stop offset=".348" stop-color="#d61bae"/><stop offset="1" stop-color="#00b5f4"/></linearGradient></defs></svg>