<svg width="72" height="72" viewBox="0 0 72 72" fill="none"
  xmlns="http://www.w3.org/2000/svg">
  <path fill-rule="evenodd" clip-rule="evenodd" d="M25.0013 14.2394C21.8415 15.8638 18.4386 17.082 14.7926 17.738C13.79 17.8942 13 18.8 13 19.8933C13 30.9512 14.428 39.5102 17.8613 46.6322C21.3554 53.8167 26.7939 59.4706 34.8454 64.656C35.5139 65.0933 36.395 65.1245 37.0938 64.6872C45.1757 59.4706 50.6446 53.848 54.1083 46.6322C57.572 39.5102 59 30.9512 59 19.8933C59 18.8625 58.2708 17.9566 57.2682 17.7692C53.5918 17.1132 50.1585 15.8638 46.9987 14.2394C43.4742 12.4277 40.284 10.1474 37.3976 7.55471C36.6077 6.83626 35.4227 6.80502 34.6328 7.52347C31.716 10.1161 28.4954 12.4277 25.0013 14.2394ZM36.5 52C45.0604 52 52 45.0604 52 36.5C52 27.9396 45.0604 21 36.5 21C27.9396 21 21 27.9396 21 36.5C21 45.0604 27.9396 52 36.5 52Z" fill="url(#paint0_linear)"/>
  <path fill-rule="evenodd" clip-rule="evenodd" d="M51 36.5C51 44.5081 44.5081 51 36.5 51C28.4919 51 22 44.5081 22 36.5C22 28.4919 28.4919 22 36.5 22C40.7437 22 44.5615 23.823 47.2132 26.7286L35.385 38.5568L30.1212 33.2929C29.7306 32.9024 29.0975 32.9024 28.707 33.2929C28.3164 33.6834 28.3164 34.3166 28.707 34.7071L34.6777 40.6779C34.8646 40.8648 35.1072 40.9622 35.352 40.9702C35.6189 40.979 35.8887 40.8816 36.0924 40.6779L48.4644 28.3059C50.064 30.637 51 33.4592 51 36.5ZM49.9 26.8703C51.8509 29.5802 53 32.9059 53 36.5C53 45.6127 45.6127 53 36.5 53C27.3873 53 20 45.6127 20 36.5C20 27.3873 27.3873 20 36.5 20C41.2959 20 45.6139 22.0461 48.6287 25.3131L51.1489 22.7929C51.5394 22.4024 52.1726 22.4024 52.5631 22.7929C52.9536 23.1834 52.9536 23.8166 52.5631 24.2071L49.9 26.8703Z" fill="url(#paint1_linear)"/>
  <path d="M9.41183 14.3183L9.42327 14.3166L9.43466 14.3146C14.1371 13.4816 18.5206 11.9355 22.5837 9.87913L22.5868 9.87753C27.0767 7.58538 31.205 4.66631 34.9347 1.40235L34.9347 1.4024L34.9432 1.39482C35.5389 0.861392 36.4579 0.862989 37.0951 1.4336L37.0951 1.43361L37.0998 1.4377C40.795 4.70565 44.8874 7.587 49.4163 9.87912C53.4751 11.9333 57.896 13.5191 62.6389 14.3528C63.419 14.4982 64 15.2015 64 16.0055C64 29.6539 62.208 40.1066 57.9356 48.7557L57.9334 48.7604C53.6697 57.5055 46.9275 64.3579 36.8493 70.7636C36.3096 71.0932 35.616 71.0738 35.0858 70.7322L35.0797 70.7284C25.0417 64.3636 18.3319 57.4716 14.027 48.7576C9.79169 40.1071 8 29.653 8 16.0055C8 15.1406 8.63712 14.4372 9.41183 14.3183Z" stroke="url(#paint2_linear)" stroke-width="2"/>
  <defs>
    <linearGradient id="paint0_linear" x1="36" y1="7" x2="36" y2="65" gradientUnits="userSpaceOnUse">
      <stop stop-color="#1E1D58"/>
      <stop offset="1" stop-color="#040D2F"/>
    </linearGradient>
    <linearGradient id="paint1_linear" x1="36.5" y1="20" x2="36.5" y2="53" gradientUnits="userSpaceOnUse">
      <stop stop-color="#01D1FF"/>
      <stop offset="1" stop-color="#660DAC"/>
    </linearGradient>
    <linearGradient id="paint2_linear" x1="36" y1="0" x2="36" y2="72" gradientUnits="userSpaceOnUse">
      <stop stop-color="#01D1FF"/>
      <stop offset="1" stop-color="#660DAC"/>
    </linearGradient>
  </defs>
</svg>
