<svg width="45" height="45" viewBox="0 0 45 45" fill="none"
  xmlns="http://www.w3.org/2000/svg">
  <path fill-rule="evenodd" clip-rule="evenodd" d="M45 40.5018C45 42.9876 42.9689 45 40.4641 45H4.53586C2.03106 45 0 42.985 0 40.5018V4.49819C0 2.015 2.03106 0 4.53586 0H40.4641C42.9716 0 45 2.015 45 4.49819V40.5018ZM14.6385 11.0036C14.6385 12.6565 13.4031 13.9964 11.372 13.9964C9.46136 13.9964 8.22598 12.6565 8.22598 11.0036C8.22598 9.31195 9.50062 8.01086 11.4532 8.01086C13.4031 8.01086 14.5992 9.30936 14.6385 11.0036ZM8.38564 35.6053V16.3554H14.4396V35.6053H8.38564ZM17.9027 16.3554C17.9839 18.0885 18.0624 20.0957 18.0624 22.4961V35.6053H24.1189V24.5034C24.1189 23.9524 24.1582 23.4015 24.3178 23.0083C24.7576 21.9064 25.7521 20.7657 27.4246 20.7657C29.6153 20.7657 30.4922 22.4573 30.4922 24.9379V35.6053H36.5461V24.2292C36.5461 18.5618 33.5597 15.9234 29.5761 15.9234C26.3096 15.9234 24.3571 17.7729 23.5614 19.0326H23.441L23.161 16.3554H17.9027Z" fill="url(#paint0_linear)"/>
  <defs>
    <linearGradient id="paint0_linear" x1="22.5" y1="0" x2="22.5" y2="45" gradientUnits="userSpaceOnUse">
      <stop stop-color="#01D1FF"/>
      <stop offset="1" stop-color="#660DAC"/>
    </linearGradient>
  </defs>
</svg>
