<svg width="72" height="72" viewBox="0 0 72 72" fill="none"
  xmlns="http://www.w3.org/2000/svg">
  <path opacity="0.8" d="M0 36C0 55.8823 16.1178 72 36 72C55.8823 72 72 55.8823 72 36C72 16.1178 55.8823 0 36 0C16.1178 0 0 16.1178 0 36Z" fill="url(#paint0_linear)"/>
  <path fill-rule="evenodd" clip-rule="evenodd" d="M39.2665 11.2115L39.2665 11.2114L39.5252 9.22816L39.6545 8.23656C38.4576 8.08043 37.2377 8 36 8C34.7623 8 33.5424 8.08043 32.3455 8.23656L32.4748 9.22816L32.7335 11.2114L32.7335 11.2115C30.5294 11.4991 28.4155 12.0738 26.4307 12.8969L26.4306 12.8966L25.6645 11.0492L25.2814 10.1254C23.004 11.0699 20.8791 12.3056 18.953 13.7858L19.5623 14.5787L20.7809 16.1645L20.781 16.1646C19.0487 17.4957 17.4957 19.0487 16.1646 20.781L16.1645 20.7809L14.5787 19.5623L13.7858 18.953C12.3056 20.8791 11.0698 23.004 10.1254 25.2814L11.0492 25.6645L12.8966 26.4306L12.8969 26.4307C12.0738 28.4155 11.4991 30.5294 11.2115 32.7335L11.2114 32.7335L9.22816 32.4748L8.23656 32.3455C8.08043 33.5424 8 34.7623 8 36C8 37.2377 8.08043 38.4576 8.23656 39.6545L9.22816 39.5252L11.2114 39.2665L11.2115 39.2665C11.4991 41.4706 12.0738 43.5845 12.8969 45.5693L12.8966 45.5694L11.0492 46.3355L10.1254 46.7186C11.0699 48.996 12.3056 51.1209 13.7858 53.047L14.5787 52.4377L16.1645 51.2191L16.1646 51.219C17.4957 52.9513 19.0487 54.5043 20.781 55.8354L20.7809 55.8355L19.5623 57.4213L18.953 58.2142C20.8791 59.6944 23.004 60.9301 25.2814 61.8746L25.6645 60.9508L26.4306 59.1034L26.4307 59.1031C28.4155 59.9262 30.5294 60.5009 32.7335 60.7885L32.7335 60.7886L32.4748 62.7718L32.3455 63.7634C33.5424 63.9196 34.7623 64 36 64C37.414 64 38.8047 63.895 40.1645 63.6921L40.0169 62.7031L39.7218 60.725L39.7217 60.7247C42.2324 60.3499 44.6217 59.6016 46.8307 58.5382L46.8309 58.5386L47.6985 60.3407L48.1323 61.2417C49.3465 60.6571 50.5118 59.9876 51.6205 59.2411L51.987 59.6076L53.4012 61.0218L54.8155 59.6076L59.6076 54.8154L61.0219 53.4012L59.6076 51.987L59.2411 51.6205C59.9194 50.6131 60.5341 49.559 61.0793 48.4639L60.1841 48.0182L58.3938 47.1268L58.3934 47.1266C59.518 44.8673 60.3109 42.4137 60.7083 39.8303L60.7085 39.8304L62.6853 40.1342L63.6737 40.2861C63.8887 38.8877 64 37.4562 64 36C64 34.7623 63.9196 33.5424 63.7634 32.3455L62.7718 32.4748L60.7886 32.7335L60.7885 32.7335C60.5009 30.5294 59.9262 28.4155 59.1031 26.4307L59.1034 26.4306L60.9508 25.6645L61.8746 25.2814C60.9301 23.004 59.6944 20.8791 58.2142 18.953L57.4213 19.5623L55.8355 20.7809L55.8354 20.781C54.5043 19.0487 52.9513 17.4957 51.219 16.1646L51.2191 16.1645L52.4377 14.5787L53.047 13.7858C51.1209 12.3056 48.996 11.0698 46.7186 10.1254L46.3355 11.0492L45.5694 12.8966L45.5693 12.8969C43.5845 12.0738 41.4706 11.4991 39.2665 11.2115ZM55.6236 48.003C57.7653 44.5094 59 40.4002 59 36C59 23.2975 48.7025 13 36 13C23.2975 13 13 23.2975 13 36C13 48.7025 23.2975 59 36 59C40.4003 59 44.5095 57.7652 48.003 55.6236L41.8683 49.4888C36.2161 52.056 29.3259 51.0153 24.6774 46.3668C20.5822 42.2716 19.2871 36.4367 20.792 31.2411C20.9954 30.5391 21.2498 29.8488 21.5554 29.176L23.0824 30.703L30.2976 37.9182L31.7118 39.3324L33.126 37.9182L37.9182 33.126L39.3324 31.7118L37.9182 30.2976L30.703 23.0824L29.176 21.5554C29.8488 21.2498 30.5391 20.9954 31.2411 20.792C36.4367 19.2871 42.2716 20.5822 46.3668 24.6774C51.0154 29.3259 52.056 36.216 49.4889 41.8682L55.6236 48.003ZM58.1934 53.4012L48.0746 43.2824L47.0949 42.3027L47.6679 41.0412C49.9017 36.123 48.9927 30.1317 44.9526 26.0916C41.6781 22.8171 37.1218 21.5995 32.894 22.445L40.7467 30.2976L42.1609 31.7118L40.7467 33.126L33.126 40.7466L31.7118 42.1608L30.2976 40.7466L22.445 32.894C21.5995 37.1218 22.8171 41.6781 26.0916 44.9526C30.1317 48.9927 36.123 49.9016 41.0412 47.6679L42.3027 47.0949L43.2825 48.0746L53.4012 58.1934L58.1934 53.4012Z" fill="url(#paint1_linear)"/>
  <defs>
    <linearGradient id="paint0_linear" x1="36" y1="0" x2="36" y2="72" gradientUnits="userSpaceOnUse">
      <stop stop-color="#1E1D58"/>
      <stop offset="1" stop-color="#040D2F"/>
    </linearGradient>
    <linearGradient id="paint1_linear" x1="36" y1="8" x2="36" y2="64" gradientUnits="userSpaceOnUse">
      <stop stop-color="#01D1FF"/>
      <stop offset="1" stop-color="#660DAC"/>
    </linearGradient>
  </defs>
</svg>
