<svg width="72" height="73" viewBox="0 0 72 73" fill="none"
  xmlns="http://www.w3.org/2000/svg">
  <path opacity="0.2" d="M16 44C16 42.8954 16.8954 42 18 42H54C55.1046 42 56 42.8954 56 44V61C56 62.1046 55.1046 63 54 63H18C16.8954 63 16 62.1046 16 61V44Z" fill="url(#paint0_linear)"/>
  <path fill-rule="evenodd" clip-rule="evenodd" d="M3 16C2.44771 16 2 16.4477 2 17V51C2 51.5523 2.44772 52 3 52H7V54H3C1.34315 54 0 52.6569 0 51V17C0 15.3431 1.34315 14 3 14H18V16H3ZM54 14H69C70.6569 14 72 15.3431 72 17V51C72 52.6569 70.6569 54 69 54H65V52H69C69.5523 52 70 51.5523 70 51V17C70 16.4477 69.5523 16 69 16H54V14ZM71 73H1V71H71V73ZM12 38H60V67H12V38ZM10 38C10 36.8954 10.8954 36 12 36H60C61.1046 36 62 36.8954 62 38V67C62 68.1046 61.1046 69 60 69H12C10.8954 69 10 68.1046 10 67V38Z" fill="url(#paint1_linear)"/>
  <path opacity="0.8" d="M22 14C22 21.732 28.268 28 36 28C43.732 28 50 21.732 50 14C50 6.26801 43.732 0 36 0C28.268 0 22 6.26801 22 14Z" fill="url(#paint2_linear)"/>
  <path d="M35.6282 52.5001L35.6279 15.5L26.7891 24.3389" stroke="url(#paint3_linear)" stroke-width="2"/>
  <defs>
    <linearGradient id="paint0_linear" x1="36" y1="42" x2="36" y2="63" gradientUnits="userSpaceOnUse">
      <stop stop-color="#01D1FF"/>
      <stop offset="1" stop-color="#660DAC"/>
    </linearGradient>
    <linearGradient id="paint1_linear" x1="36" y1="14" x2="36" y2="73" gradientUnits="userSpaceOnUse">
      <stop stop-color="#01D1FF"/>
      <stop offset="1" stop-color="#660DAC"/>
    </linearGradient>
    <linearGradient id="paint2_linear" x1="36" y1="0" x2="36" y2="28" gradientUnits="userSpaceOnUse">
      <stop stop-color="#1E1D58"/>
      <stop offset="1" stop-color="#040D2F"/>
    </linearGradient>
    <linearGradient id="paint3_linear" x1="26.3779" y1="24.75" x2="44.878" y2="43.2501" gradientUnits="userSpaceOnUse">
      <stop stop-color="#01D1FF"/>
      <stop offset="1" stop-color="#660DAC"/>
    </linearGradient>
  </defs>
</svg>
