<svg width="72" height="73" viewBox="0 0 72 73" fill="none"
  xmlns="http://www.w3.org/2000/svg">
  <rect width="72" height="72" fill="#040D2F"/>
  <path fill-rule="evenodd" clip-rule="evenodd" d="M26 8H17C15.8954 8 15 8.89543 15 10V62C15 63.1046 15.8954 64 17 64H26C27.1046 64 28 63.1046 28 62V10C28 8.89543 27.1046 8 26 8ZM41 8H32C30.8954 8 30 8.89543 30 10V62C30 63.1046 30.8954 64 32 64H41C42.1046 64 43 63.1046 43 62V10C43 8.89543 42.1046 8 41 8ZM47 8H56C57.1046 8 58 8.89543 58 10V62C58 63.1046 57.1046 64 56 64H47C45.8954 64 45 63.1046 45 62V10C45 8.89543 45.8954 8 47 8Z" fill="url(#paint0_linear)"/>
  <path fill-rule="evenodd" clip-rule="evenodd" d="M43.4278 38.7117L42.719 38.0007L42.0108 38.7124L34.8407 45.9178H18V43.4177V41.4177H16H13H11V43.4177V62.4177V64.4177H13H16H18V62.4177V61.4178H50.757H51.1727L51.4658 61.1231L60.7088 51.8347L61.4103 51.1298L60.7093 50.4244L52.1334 41.7951L51.4246 41.0819L50.7153 41.7947L48.6104 43.9099L43.4278 38.7117ZM18 59.4178H50.3414L58.5897 51.1288L51.4237 43.9182L49.3199 46.0323L48.6117 46.744L47.9029 46.033L42.7203 40.8348L37.6622 45.9178H44.5H45.5V46.9178V53.9178V54.9178H44.5H29.5V52.9178H43.5V47.9178H18V59.4178ZM16 43.4177H13V62.4177H16V43.4177Z" fill="url(#paint1_linear)"/>
  <circle cx="36.5" cy="14.5" r="13.5" fill="url(#paint2_linear)" stroke="url(#paint3_linear)" stroke-width="2"/>
  <path d="M35.5595 21.9935C34.5372 21.9156 33.6375 21.7013 32.8606 21.3506C32.0973 20.987 31.4771 20.513 31 19.9286L32.7788 18.0779C33.215 18.5195 33.6784 18.8636 34.1691 19.1104C34.6735 19.3571 35.2051 19.5195 35.7639 19.5974V16.013L35.2937 15.9351C33.9851 15.7143 33.0173 15.2597 32.3903 14.5714C31.7633 13.8701 31.4498 13.0195 31.4498 12.0195C31.4498 10.9156 31.8042 10.0195 32.513 9.33117C33.2218 8.64286 34.2373 8.21429 35.5595 8.04545V6H37.8903V8.02597C38.7491 8.12987 39.4783 8.33766 40.0781 8.64935C40.6915 8.96104 41.2026 9.34416 41.6115 9.7987L39.8532 11.6688C39.2807 11.0714 38.5582 10.6818 37.6859 10.5V13.7532L38.1561 13.8312C39.4647 14.0649 40.4325 14.5195 41.0595 15.1948C41.6865 15.8571 42 16.6818 42 17.6688C42 18.2013 41.9046 18.7013 41.7138 19.1688C41.5366 19.6364 41.2708 20.0519 40.9164 20.4156C40.5756 20.7792 40.1462 21.0909 39.6283 21.3506C39.1239 21.5974 38.5446 21.7792 37.8903 21.8961V24H35.5595V21.9935ZM34.3327 11.9221C34.3327 12.3377 34.4418 12.6558 34.6599 12.8766C34.8916 13.0844 35.2596 13.2532 35.7639 13.3831V10.4416C35.2596 10.5195 34.8916 10.6818 34.6599 10.9286C34.4418 11.1753 34.3327 11.5065 34.3327 11.9221ZM39.1375 17.8636C39.1375 17.4221 39.0217 17.0909 38.79 16.8701C38.5582 16.6494 38.1902 16.4805 37.6859 16.3636V19.5779C38.1766 19.474 38.5378 19.2792 38.7695 18.9935C39.0149 18.6948 39.1375 18.3182 39.1375 17.8636Z" fill="url(#paint4_linear)"/>
  <path d="M0 72H72" stroke="url(#paint5_linear)" stroke-width="2"/>
  <defs>
    <linearGradient id="paint0_linear" x1="36.5" y1="8" x2="36.5" y2="64" gradientUnits="userSpaceOnUse">
      <stop stop-color="#1E1D58"/>
      <stop offset="1" stop-color="#040D2F"/>
    </linearGradient>
    <linearGradient id="paint1_linear" x1="36.2052" y1="38.0007" x2="36.2052" y2="64.4177" gradientUnits="userSpaceOnUse">
      <stop stop-color="#01D1FF"/>
      <stop offset="1" stop-color="#660DAC"/>
    </linearGradient>
    <linearGradient id="paint2_linear" x1="36.5" y1="0" x2="36.5" y2="29" gradientUnits="userSpaceOnUse">
      <stop stop-color="#1E1D58"/>
      <stop offset="1" stop-color="#040D2F"/>
    </linearGradient>
    <linearGradient id="paint3_linear" x1="36.5" y1="0" x2="36.5" y2="29" gradientUnits="userSpaceOnUse">
      <stop stop-color="#01D1FF"/>
      <stop offset="1" stop-color="#660DAC"/>
    </linearGradient>
    <linearGradient id="paint4_linear" x1="36.5" y1="6" x2="36.5" y2="24" gradientUnits="userSpaceOnUse">
      <stop stop-color="#01D1FF"/>
      <stop offset="1" stop-color="#660DAC"/>
    </linearGradient>
    <linearGradient id="paint5_linear" x1="36" y1="72" x2="36" y2="73" gradientUnits="userSpaceOnUse">
      <stop stop-color="#01D1FF"/>
      <stop offset="1" stop-color="#660DAC"/>
    </linearGradient>
  </defs>
</svg>
