<svg xmlns="http://www.w3.org/2000/svg" xmlns:xlink="http://www.w3.org/1999/xlink" width="72" height="73" fill="none" xmlns:v="https://vecta.io/nano"><circle cx="36.5" cy="28.5" r="16.5" fill="url(#B)"/><path fill-rule="evenodd" d="M35.56 10.467V8h2v2.472c9.324.533 16.754 8.134 17.016 17.528h3.96v2h-4.014c-.73 8.94-7.964 16.037-16.962 16.55V50h-2v-3.443C26.518 46.087 19.235 38.97 18.504 30h-3.622v-2h3.57c.262-9.426 7.742-17.047 17.1-17.533zm0 1.957A16.12 16.12 0 0 0 20.405 28h2.78v2h-2.72c.723 7.89 7.133 14.136 15.096 14.6v-2.903h2v2.897c7.92-.508 14.282-6.735 15-14.594h-2.327v-2h2.387A16.12 16.12 0 0 0 37.56 12.429v3.873h-2v-3.88z" fill="url(#C)"/><mask id="A" fill="#fff"><use xlink:href="#E" fill-rule="evenodd"/></mask><use xlink:href="#E" fill-rule="evenodd" fill="#040d2f"/><path d="M36.504 38l-1.032 1.713 1.032.622 1.032-.622L36.504 38zm-9.445-5.692l-1.63-1.158-1.25 1.758 1.847 1.113 1.032-1.713zm18.883.005l1.032 1.713-1.032-1.713zm.06-.035l1.032 1.713 2.842-1.713-2.842-1.713L46 32.278zm-.146-.088l-1.63 1.157.242.34.358.216 1.032-1.713zM36.5 19l1.63-1.157-1.63-2.3-1.632 2.3L36.5 19zm-9.354 13.184l1.032 1.713.358-.215.24-.34-1.63-1.157zm-.146.088l-1.032-1.713-2.843 1.713 2.843 1.713L27 32.272zm.06.035l1.63 1.158 1.25-1.758-1.847-1.113-1.032 1.713zm10.478 3.98l-9.445-5.692-2.065 3.426 9.445 5.692 2.065-3.426zM44.91 30.6l-9.437 5.687 2.064 3.426 9.437-5.687L44.91 30.6zm.06-.035l-.06.035 2.065 3.426.06-.035-2.065-3.426zm-.146 3.338l.146.088 2.064-3.426-.146-.088-2.064 3.426zM34.87 20.157l9.354 13.19 3.263-2.314-9.354-13.19-3.263 2.314zm-6.09 13.185l9.354-13.184-3.262-2.315-9.354 13.184 3.262 2.315zm-.745.644l.146-.088-2.064-3.426-.146.088 2.064 3.426zm.06-3.39l-.06-.035-2.065 3.426.06.035 2.065-3.426zm.598 2.87h0l-3.26-2.317 3.26 2.317z" fill="#00f0ff" mask="url(#A)"/><path fill-rule="evenodd" d="M2 2h68v53H2V2zM0 2a2 2 0 0 1 2-2h68a2 2 0 0 1 2 2v53a2 2 0 0 1-2 2H2a2 2 0 0 1-2-2V2zm27 69h18V61h2v10h15v2H10v-2h15v-5h2v5z" fill="url(#D)"/><g fill="#01d1ff"><circle cx="8.5" cy="8.5" r="2.5"/><circle cx="64.5" cy="8.5" r="2.5"/></g><defs><linearGradient id="B" x1="36.5" y1="12" x2="36.5" y2="45" gradientUnits="userSpaceOnUse"><stop stop-color="#1e1d58"/><stop offset="1" stop-color="#040d2f"/></linearGradient><linearGradient id="C" x1="36.709" y1="8" x2="36.709" y2="50" gradientUnits="userSpaceOnUse"><stop stop-color="#01d1ff"/><stop offset="1" stop-color="#660dac"/></linearGradient><linearGradient id="D" x1="36" y1="0" x2="36" y2="73" gradientUnits="userSpaceOnUse"><stop stop-color="#01d1ff"/><stop offset="1" stop-color="#660dac"/></linearGradient><path id="E" d="M27.06 32.308L36.504 38 46 32.278l-.146-.088L36.5 19l-9.354 13.184-.146.088.06.035z"/></defs></svg>