<svg width="72" height="72" viewBox="0 0 72 72" fill="none"
  xmlns="http://www.w3.org/2000/svg">
  <path fill-rule="evenodd" clip-rule="evenodd" d="M34.8717 8.34702L34.1646 9.05413L34.8717 9.76124L40.4399 15.3295L41.147 16.0366L41.1471 16.0366L46.6476 21.537L47.3547 22.2441L47.3547 22.244L52.1277 27.017L52.8348 27.7241L52.8349 27.7242L53.542 28.4313L58.4031 33.2924L59.1102 33.9995L59.8173 33.2924L63.3969 29.7128C65.3251 27.7846 65.3251 24.6585 63.3969 22.7303C62.2602 21.5935 60.707 21.127 59.2284 21.3306C59.432 19.852 58.9654 18.2988 57.8287 17.1621C56.4851 15.8184 54.5598 15.4111 52.8634 15.94C53.3923 14.2437 52.985 12.3185 51.6414 10.9749C50.2899 9.62345 48.35 9.21923 46.6465 9.76224C47.1894 8.05875 46.7852 6.11883 45.4338 4.76741C43.5056 2.83925 40.3794 2.83925 38.4513 4.76741L34.8717 8.34702ZM54.9562 27.0171L57.8287 24.1445L57.8397 24.1335C58.9877 22.9974 60.8393 23.0011 61.9827 24.1445C63.1298 25.2916 63.1298 27.1515 61.9827 28.2986L59.1102 31.1711L54.9562 27.0171ZM56.4255 22.7193C57.5616 21.5713 57.5579 19.7197 56.4145 18.5763C55.2674 17.4292 53.4075 17.4292 52.2604 18.5763L49.3879 21.4488L53.5419 25.6028L56.4144 22.7303L56.4255 22.7193ZM41.147 13.2082L36.993 9.05413L39.8655 6.18162C41.0126 5.03451 42.8724 5.03451 44.0196 6.18163C45.1667 7.32874 45.1667 9.18858 44.0196 10.3357L41.147 13.2082ZM47.3547 19.4157L43.2006 15.2616L46.0731 12.3891C47.2202 11.242 49.0801 11.242 50.2272 12.3891C51.3743 13.5362 51.3743 15.3961 50.2272 16.5432L47.3547 19.4157ZM2.8294 46.3243L7.38758 41.7661L29.5599 63.9384L25.0017 68.4966L2.8294 46.3243ZM0.000976562 46.3243L1.41519 44.9101L5.97337 40.3519L7.38758 38.9377L8.8018 40.3519L30.9741 62.5242L32.3883 63.9384L30.9741 65.3526L26.4159 69.9108L25.0017 71.325L23.5875 69.9108L1.41519 47.7385L0.000976562 46.3243ZM69.1716 46.3243L64.6134 41.7661L42.4411 63.9384L46.9993 68.4966L69.1716 46.3243ZM72 46.3243L70.5858 44.9101L66.0276 40.3519L64.6134 38.9377L63.1992 40.3519L41.0269 62.5242L39.6127 63.9384L41.0269 65.3526L45.5851 69.9108L46.9993 71.325L48.4135 69.9108L70.5858 47.7385L72 46.3243ZM36.2378 63.1684L35.5307 62.4613L8.61177 35.5424L5.03216 31.9628C3.104 30.0346 3.104 26.9084 5.03216 24.9803C6.38361 23.6288 8.32358 23.2246 10.0271 23.7676C9.48414 22.0641 9.88836 20.1242 11.2398 18.7728C12.5832 17.4293 14.5082 17.0219 16.2044 17.5506C15.6756 15.8543 16.083 13.9291 17.4265 12.5856C18.5633 11.4489 20.1165 10.9823 21.595 11.1859C21.3914 9.70731 21.858 8.15415 22.9948 7.01739C24.9229 5.08922 28.0491 5.08922 29.9773 7.01739L33.5569 10.597L32.1427 12.0112L28.563 8.4316C27.4159 7.28448 25.5561 7.28449 24.409 8.4316C23.2656 9.57503 23.2619 11.4266 24.398 12.5746L24.409 12.5856L27.9886 16.1652L27.9886 16.1653L26.5744 17.5794L26.5744 17.5795L22.9948 13.9999L22.9837 13.9888C21.8358 12.8527 19.9842 12.8564 18.8407 13.9998C17.6936 15.147 17.6936 17.0068 18.8407 18.1539L22.4204 21.7335L21.8017 22.3522L21.8019 22.3524L20.3877 23.7666L16.8081 20.187C15.661 19.0399 13.8011 19.0399 12.654 20.187C11.5069 21.3341 11.5069 23.1939 12.654 24.3411L16.2336 27.9207L14.8194 29.3349L14.8193 29.3348L14.1801 29.9741L10.6004 26.3945C9.45333 25.2474 7.59349 25.2474 6.44637 26.3945C5.29926 27.5416 5.29926 29.4014 6.44638 30.5485L10.026 34.1282L36.2378 60.34L60.2804 36.2973L61.6946 37.7115L36.9449 62.4613L36.2378 63.1684Z" fill="url(#paint0_linear)"/>
  <defs>
    <linearGradient id="paint0_linear" x1="36.0005" y1="3.32129" x2="36.0005" y2="71.325" gradientUnits="userSpaceOnUse">
      <stop stop-color="#01D1FF"/>
      <stop offset="1" stop-color="#660DAC"/>
    </linearGradient>
  </defs>
</svg>
