<svg width="72" height="72" viewBox="0 0 72 72" fill="none"
  xmlns="http://www.w3.org/2000/svg">
  <path fill-rule="evenodd" clip-rule="evenodd" d="M31.5001 6.0858V6.50001V19H29.5001V6.91423L24.293 1.70712L25.7072 0.292908L31.2072 5.79291L31.5001 6.0858ZM40.0001 6.0858V6.50001V19H42.0001V6.91423L47.2072 1.70712L45.793 0.292908L40.293 5.79291L40.0001 6.0858ZM37.0001 6.50001V19H35.0001V6.50001H37.0001ZM65.9143 36.5H65.5001H56.0001V34.5H65.0859L70.293 29.2929L71.7072 30.7071L66.2072 36.2071L65.9143 36.5ZM6.50008 33H16.0001V31H6.50008V33ZM6.50008 35H6.08586L5.79297 35.2929L0.292969 40.7929L1.70718 42.2071L6.91429 37H16.0001V35H6.50008ZM65.5001 38.5H56.0001V40.5H65.5001V38.5ZM40.0001 65.5L40.0001 65.9142L40.293 66.2071L45.793 71.7071L47.2072 70.2929L42.0001 65.0858V53H40.0001V65.5ZM31.5001 65.5V65.9142L31.2072 66.2071L25.7072 71.7071L24.293 70.2929L29.5001 65.0858L29.5001 53H31.5001V65.5ZM35.0001 53V65.5H37.0001V53H35.0001Z" fill="url(#paint0_linear)"/>
  <path opacity="0.2" d="M21 27.5C21 26.6716 21.6716 26 22.5 26H49.5C50.3284 26 51 26.6716 51 27.5V42.5C51 43.3284 50.3284 44 49.5 44H22.5C21.6716 44 21 43.3284 21 42.5V27.5Z" fill="url(#paint1_linear)"/>
  <path fill-rule="evenodd" clip-rule="evenodd" d="M19.7837 25.3513L52.2161 25.3514V44.9459L19.7837 44.9459V25.3513ZM18.4324 25.3513C18.4324 24.605 19.0374 24 19.7837 24H52.2161C52.9625 24 53.5675 24.605 53.5675 25.3514V44.9459C53.5675 45.6923 52.9625 46.2973 52.2161 46.2973H19.7837C19.0374 46.2973 18.4324 45.6923 18.4324 44.9459V25.3513ZM12.3511 49H59.6484V47.6487H12.3511V49Z" fill="url(#paint2_linear)"/>
  <path d="M9.19351 11.387C10.405 11.387 11.387 10.4049 11.387 9.19351C11.387 7.98207 10.405 7 9.19351 7C7.98206 7 7 7.98207 7 9.19351C7 10.4049 7.98206 11.387 9.19351 11.387Z" fill="url(#paint3_linear)"/>
  <path d="M61.8377 11.387C63.0492 11.387 64.0312 10.4049 64.0312 9.19351C64.0312 7.98207 63.0492 7 61.8377 7C60.6263 7 59.6442 7.98207 59.6442 9.19351C59.6442 10.4049 60.6263 11.387 61.8377 11.387Z" fill="url(#paint4_linear)"/>
  <path d="M11.387 61.8377C11.387 63.0492 10.405 64.0312 9.19351 64.0312C7.98206 64.0312 7 63.0492 7 61.8377C7 60.6263 7.98206 59.6442 9.19351 59.6442C10.405 59.6442 11.387 60.6263 11.387 61.8377Z" fill="url(#paint5_linear)"/>
  <path d="M64.0312 61.8377C64.0312 63.0492 63.0492 64.0312 61.8377 64.0312C60.6263 64.0312 59.6442 63.0492 59.6442 61.8377C59.6442 60.6263 60.6263 59.6442 61.8377 59.6442C63.0492 59.6442 64.0312 60.6263 64.0312 61.8377Z" fill="url(#paint6_linear)"/>
  <defs>
    <linearGradient id="paint0_linear" x1="36.0001" y1="0.292908" x2="36.0001" y2="71.7071" gradientUnits="userSpaceOnUse">
      <stop stop-color="#01D1FF"/>
      <stop offset="1" stop-color="#660DAC"/>
    </linearGradient>
    <linearGradient id="paint1_linear" x1="36" y1="26" x2="36" y2="44" gradientUnits="userSpaceOnUse">
      <stop stop-color="#01D1FF"/>
      <stop offset="1" stop-color="#660DAC"/>
    </linearGradient>
    <linearGradient id="paint2_linear" x1="35.9997" y1="24" x2="35.9997" y2="49" gradientUnits="userSpaceOnUse">
      <stop stop-color="#01D1FF"/>
      <stop offset="1" stop-color="#660DAC"/>
    </linearGradient>
    <linearGradient id="paint3_linear" x1="35.5156" y1="7" x2="35.5156" y2="64.0312" gradientUnits="userSpaceOnUse">
      <stop stop-color="#01D1FF"/>
      <stop offset="1" stop-color="#660DAC"/>
    </linearGradient>
    <linearGradient id="paint4_linear" x1="35.5156" y1="7" x2="35.5156" y2="64.0312" gradientUnits="userSpaceOnUse">
      <stop stop-color="#01D1FF"/>
      <stop offset="1" stop-color="#660DAC"/>
    </linearGradient>
    <linearGradient id="paint5_linear" x1="35.5156" y1="7" x2="35.5156" y2="64.0312" gradientUnits="userSpaceOnUse">
      <stop stop-color="#01D1FF"/>
      <stop offset="1" stop-color="#660DAC"/>
    </linearGradient>
    <linearGradient id="paint6_linear" x1="35.5156" y1="7" x2="35.5156" y2="64.0312" gradientUnits="userSpaceOnUse">
      <stop stop-color="#01D1FF"/>
      <stop offset="1" stop-color="#660DAC"/>
    </linearGradient>
  </defs>
</svg>
