<svg width="72" height="73" viewBox="0 0 72 73" fill="none"
  xmlns="http://www.w3.org/2000/svg">
  <path opacity="0.2" d="M12 25C12 23.8954 12.8954 23 14 23H60C61.1046 23 62 23.8954 62 25V48C62 49.1046 61.1046 50 60 50H14C12.8954 50 12 49.1046 12 48V25Z" fill="url(#paint0_linear)"/>
  <path fill-rule="evenodd" clip-rule="evenodd" d="M0 2.5H72V0.5H0V2.5ZM0 73H72V71H0V73ZM2 19C2 18.4477 2.44771 18 3 18H18V16H3C1.34315 16 0 17.3431 0 19V53C0 54.6569 1.34315 56 3 56H7V54H3C2.44772 54 2 53.5523 2 53V19ZM69 16H65V18H69C69.5523 18 70 18.4477 70 19V53C70 53.5523 69.5523 54 69 54H54V56H69C70.6569 56 72 54.6569 72 53V19C72 17.3431 70.6569 16 69 16Z" fill="url(#paint1_linear)"/>
  <path fill-rule="evenodd" clip-rule="evenodd" d="M61.2607 16.1399H47.0153V18.1399H58.8465L30.7376 46.2492L32.1518 47.6634L61.9678 17.847L63.6749 16.1399H61.2607ZM10.8829 56.002H25.1283V54.002H13.2971L41.406 25.8927L39.9918 24.4785L10.1758 54.2949L8.46875 56.002H10.8829Z" fill="url(#paint2_linear)"/>
  <defs>
    <linearGradient id="paint0_linear" x1="37" y1="23" x2="37" y2="50" gradientUnits="userSpaceOnUse">
      <stop stop-color="#01D1FF"/>
      <stop offset="1" stop-color="#660DAC"/>
    </linearGradient>
    <linearGradient id="paint1_linear" x1="36" y1="0.5" x2="36" y2="73" gradientUnits="userSpaceOnUse">
      <stop stop-color="#01D1FF"/>
      <stop offset="1" stop-color="#660DAC"/>
    </linearGradient>
    <linearGradient id="paint2_linear" x1="36.0718" y1="16.1399" x2="36.0718" y2="56.002" gradientUnits="userSpaceOnUse">
      <stop stop-color="#01D1FF"/>
      <stop offset="1" stop-color="#660DAC"/>
    </linearGradient>
  </defs>
</svg>
