<svg width="16" height="17" viewBox="0 0 16 17" fill="none"
  xmlns="http://www.w3.org/2000/svg">
  <path fill-rule="evenodd" clip-rule="evenodd" d="M6.13873 16.0957C6.32964 16.2952 6.64614 16.3022 6.84567 16.1113L13.8457 9.4136L14 9.26593L14 9.05233L14 8.75L14 8.25L13.5 8.25L1.5 8.25C1.22386 8.25 1 8.47386 1 8.75C1 9.02614 1.22386 9.25 1.5 9.25L12.5702 9.25L6.15433 15.3887C5.95481 15.5796 5.94783 15.8961 6.13873 16.0957ZM11.8536 6.40588C12.0488 6.21062 12.0488 5.89404 11.8536 5.69877L7.05123 0.896447C6.85597 0.701185 6.53938 0.701185 6.34412 0.896447C6.14886 1.09171 6.14886 1.40829 6.34412 1.60355L11.1464 6.40588C11.3417 6.60114 11.6583 6.60114 11.8536 6.40588Z" fill="#00F0FF"/>
</svg>
